<svg version="1.1" viewBox="0 0 88.014 84.133" xmlns="http://www.w3.org/2000/svg"><defs><style>.cls-1{fill:#e8f4fa;}.cls-2{fill:#fff;}.cls-10,.cls-3{fill:none;}.cls-10,.cls-11,.cls-3,.cls-7{stroke:#191816;}.cls-11,.cls-3,.cls-7{stroke-linecap:round;stroke-linejoin:round;}.cls-4{fill:#231f20;opacity:0.15;}.cls-11,.cls-5{fill:#ffda8f;}.cls-6{fill:#ffbe3d;}.cls-13,.cls-7{fill:#00dba8;}.cls-8{fill:#614b44;}.cls-9{fill:#947063;}.cls-10{stroke-miterlimit:10;}.cls-12{fill:#f0f0f0;}.cls-14{fill:#00ad85;}.cls-15{fill:#ffe500;}.cls-16{fill:#fff48c;}</style></defs><title>46- user-rating-female-asian</title><g transform="translate(-5.9929 -11.861)" data-name="New Symbol 20"><path class="cls-1" d="m90 56a40 40 0 10-76.44 16.5h72.88a39.85 39.85 0 003.56-16.5z" style="fill:#e8f4fa"/><path class="cls-2" d="m13.56 72.49a40 40 0 0072.88 0z" style="fill:#fff"/><line class="cls-3" x1="11" x2="89" y1="72.49" y2="72.49" style="fill:none;stroke-linecap:round;stroke-linejoin:round;stroke:#191816"/><line class="cls-3" x1="6.5" x2="9" y1="72.49" y2="72.49" style="fill:none;stroke-linecap:round;stroke-linejoin:round;stroke:#191816"/><line class="cls-3" x1="91" x2="93.5" y1="72.49" y2="72.49" style="fill:none;stroke-linecap:round;stroke-linejoin:round;stroke:#191816"/></g><ellipse class="cls-4" cx="44.007" cy="81.409" rx="12.65" ry="1.72" style="fill:#231f20;opacity:.15"/><polygon class="cls-5" transform="translate(-5.9929 -11.861)" points="54.02 92.69 54.55 82.92 45.45 82.92 45.98 92.69" style="fill:#ffda8f"/><polygon class="cls-6" transform="translate(-5.9929 -11.861)" points="45.45 82.92 45.6 85.79 54.4 85.79 54.55 82.92" style="fill:#ffbe3d"/><polygon class="cls-3" transform="translate(-5.9929 -11.861)" points="54.02 92.69 54.55 82.92 45.45 82.92 45.98 92.69" style="fill:none;stroke-linecap:round;stroke-linejoin:round;stroke:#191816"/><path class="cls-7" d="m50.007 80.829a1.14 1.14 0 001-.57 1.13 1.13 0 000-1.12 3.44 3.44 0 00-3-1.73h-.58a3.45 3.45 0 00-3.42 3.42z" style="fill:#00dba8;stroke-linecap:round;stroke-linejoin:round;stroke:#191816"/><path class="cls-7" d="m44.007 80.829a3.45 3.45 0 00-3.45-3.45h-.55a3.45 3.45 0 00-3 1.76 1.13 1.13 0 000 1.15 1.14 1.14 0 001 .57z" style="fill:#00dba8;stroke-linecap:round;stroke-linejoin:round;stroke:#191816"/><line class="cls-3" x1="44.007" x2="44.007" y1="71.059" y2="80.829" style="fill:none;stroke-linecap:round;stroke-linejoin:round;stroke:#191816"/><path class="cls-8" d="m53.207 26.779a9.2 9.2 0 00-18.4 0v4.6a4.6 4.6 0 004.6 4.6h9.2a4.6 4.6 0 004.6-4.6z" style="fill:#614b44"/><path class="cls-9" d="m44.007 17.579a9.2 9.2 0 00-9.2 9.2v2.88a9.2 9.2 0 0118.4 0v-2.88a9.2 9.2 0 00-9.2-9.2z" style="fill:#947063"/><path class="cls-10" d="m53.207 26.779a9.2 9.2 0 00-18.4 0v4.6a4.6 4.6 0 004.6 4.6h9.2a4.6 4.6 0 004.6-4.6z" style="fill:none;stroke-miterlimit:10;stroke:#191816"/><path class="cls-11" d="m50.907 27.139v-.92-.46a7.34 7.34 0 01-6.9-4.15 7.34 7.34 0 01-6.88 4.14v.46.93a1.41 1.41 0 00-1.12 1.37 1.43 1.43 0 001.29 1.41 6.91 6.91 0 0013.52 0 1.43 1.43 0 001.29-1.41 1.41 1.41 0 00-1.2-1.37z" style="fill:#ffda8f;stroke-linecap:round;stroke-linejoin:round;stroke:#191816"/><circle class="cls-6" cx="40.267" cy="29.369" r=".86" style="fill:#ffbe3d"/><circle class="cls-6" cx="47.747" cy="29.369" r=".86" style="fill:#ffbe3d"/><path class="cls-3" d="m42.287 31.429a3.1 3.1 0 003.45 0" style="fill:none;stroke-linecap:round;stroke-linejoin:round;stroke:#191816"/><path class="cls-3" d="m47.117 27.359a1 1 0 00-1.38 0" style="fill:none;stroke-linecap:round;stroke-linejoin:round;stroke:#191816"/><path class="cls-3" d="m40.897 27.359a1 1 0 011.39 0" style="fill:none;stroke-linecap:round;stroke-linejoin:round;stroke:#191816"/><path class="cls-11" d="m37.687 40.459v22.26a2 2 0 01-4 0v-14.09a10.26 10.26 0 014-8.17z" style="fill:#ffda8f;stroke-linecap:round;stroke-linejoin:round;stroke:#191816"/><path class="cls-11" d="m50.337 40.459v22.26a2 2 0 004 0v-14.09a10.28 10.28 0 00-4-8.17z" style="fill:#ffda8f;stroke-linecap:round;stroke-linejoin:round;stroke:#191816"/><path class="cls-12" d="m56.597 47.499a1.23 1.23 0 00-.47 0c.19-3.6-2.82-6.22-5.79-7.06a10.3 10.3 0 00-12.65 0c-3 .84-6 3.46-5.8 7.06a1.23 1.23 0 00-.47 0 1.44 1.44 0 00.46 2.84 1.4 1.4 0 001-.8 2 2 0 003.4-.26 1.4 1.4 0 001 .5 1.44 1.44 0 00.41 0v9.83h12.65v-9.88a1.33 1.33 0 00.4 0 1.4 1.4 0 001-.5 2 2 0 003.4.26 1.4 1.4 0 001 .8 1.44 1.44 0 10.46-2.84z" style="fill:#f0f0f0"/><path class="cls-2" d="m31.877 50.339c.17-3.27 3-5.64 5.8-6.43a10.3 10.3 0 0112.65 0c2.79.79 5.63 3.16 5.79 6.43a1.44 1.44 0 10.46-2.84 1.23 1.23 0 00-.47 0c.19-3.6-2.82-6.22-5.79-7.06a10.3 10.3 0 00-12.65 0c-3 .84-6 3.46-5.8 7.06a1.23 1.23 0 00-.47 0 1.44 1.44 0 00.46 2.84z" style="fill:#fff"/><path class="cls-3" d="m56.597 47.499a1.23 1.23 0 00-.47 0c.19-3.6-2.82-6.22-5.79-7.06v0a10.3 10.3 0 00-12.65 0v0c-3 .84-6 3.46-5.8 7.06a1.23 1.23 0 00-.47 0 1.44 1.44 0 00.46 2.84 1.4 1.4 0 001-.8 2 2 0 003.4-.26 1.4 1.4 0 001 .5 1.44 1.44 0 00.41 0v9.83h12.65v-9.88a1.33 1.33 0 00.4 0 1.4 1.4 0 001-.5 2 2 0 003.4.26 1.4 1.4 0 001 .8 1.44 1.44 0 10.46-2.84z" style="fill:none;stroke-linecap:round;stroke-linejoin:round;stroke:#191816"/><path class="cls-13" d="m50.717 71.059a1.14 1.14 0 001.14-1.32l-1.52-10.18h-12.65l-1.53 10.18a1.14 1.14 0 001.14 1.32z" style="fill:#00dba8"/><polygon class="cls-14" transform="translate(-5.9929 -11.861)" points="43.67 71.42 43.24 74.29 56.76 74.29 56.33 71.42" style="fill:#00ad85"/><path class="cls-3" d="m50.717 71.059a1.14 1.14 0 001.14-1.32l-1.52-10.18h-12.65l-1.53 10.18a1.14 1.14 0 001.14 1.32z" style="fill:none;stroke-linecap:round;stroke-linejoin:round;stroke:#191816"/><path class="cls-11" d="m44.007 38.279a10.29 10.29 0 00-3.86.75l2.07 3a2.06 2.06 0 003.58 0l2.07-3a10.29 10.29 0 00-3.86-.75z" style="fill:#ffda8f;stroke-linecap:round;stroke-linejoin:round;stroke:#191816"/><line class="cls-3" x1="37.687" x2="37.687" y1="49.779" y2="47.479" style="fill:none;stroke-linecap:round;stroke-linejoin:round;stroke:#191816"/><line class="cls-3" x1="50.337" x2="50.337" y1="49.779" y2="47.479" style="fill:none;stroke-linecap:round;stroke-linejoin:round;stroke:#191816"/><path class="cls-7" d="m50.337 40.459v0a10.4 10.4 0 00-2.47-1.41c-.23.32-1.92 2.77-2.12 3.07a2.06 2.06 0 01-3.48 0c-.2-.3-1.89-2.75-2.12-3.07a10.14 10.14 0 00-2.46 1.41v0h-.18l3.4 4.24a1.15 1.15 0 001.71.1l1.39-1.34 1.39 1.39a1.15 1.15 0 001.71-.1l3.4-4.24z" style="fill:#00dba8;stroke-linecap:round;stroke-linejoin:round;stroke:#191816"/><path class="cls-15" d="m34.237 8.4688a.62.62 0 00-.17-.64.63.63 0 00-.64-.14l-2.42.87a.61.61 0 01-.57-.08l-1.93-1.34a.63.63 0 00-.66 0 .61.61 0 00-.33.57l.07 2.37a.61.61 0 01-.26.53l-2.06 1.43a.61.61 0 00-.25.61.63.63 0 00.44.5l2.46.71a.62.62 0 01.42.41l.81 2.43a.63.63 0 00.51.43.62.62 0 00.6-.27l1.39-2a.64.64 0 01.52-.28h2.47a.62.62 0 00.49-1l-1.57-2a.59.59 0 01-.1-.57z" style="fill:#ffe500"/><path class="cls-16" d="m29.147 16.699 2.57-8.4-.71.25a.61.61 0 01-.57-.08l-1.93-1.33a.63.63 0 00-.66 0 .61.61 0 00-.33.57l.07 2.37a.61.61 0 01-.26.53l-2.06 1.43a.61.61 0 00-.25.61.63.63 0 00.44.5l2.46.71a.62.62 0 01.42.41z" style="fill:#fff48c"/><path class="cls-3" d="m34.237 8.4688a.62.62 0 00-.17-.64.63.63 0 00-.64-.14l-2.42.87a.61.61 0 01-.57-.08l-1.93-1.34a.63.63 0 00-.66 0 .61.61 0 00-.33.57l.07 2.37a.61.61 0 01-.26.53l-2.06 1.43a.61.61 0 00-.25.61.63.63 0 00.44.5l2.46.71a.62.62 0 01.42.41l.81 2.43a.63.63 0 00.51.43.62.62 0 00.6-.27l1.39-2a.64.64 0 01.52-.28h2.47a.62.62 0 00.49-1l-1.57-2a.59.59 0 01-.1-.57z" style="fill:none;stroke-linecap:round;stroke-linejoin:round;stroke:#191816"/><path class="cls-15" d="m23.427 18.829a.49.49 0 00-.38-.35.51.51 0 00-.5.19l-1.22 1.63a.46.46 0 01-.42.2l-1.9-.07a.5.5 0 00-.43.79l1.09 1.54a.48.48 0 01.06.46l-.72 1.92a.5.5 0 00.1.52.49.49 0 00.51.13l2-.6a.5.5 0 01.46.08l1.6 1.27a.49.49 0 00.52 0 .48.48 0 00.29-.44v-2a.51.51 0 01.23-.41l1.63-1.09a.5.5 0 00-.12-.89l-1.92-.57a.48.48 0 01-.32-.33z" style="fill:#ffe500"/><path class="cls-16" d="m23.667 26.529-2-6.7-.36.47a.46.46 0 01-.42.2l-1.88-.07a.5.5 0 00-.43.79l1.09 1.54a.48.48 0 01.06.46l-.72 1.92a.49.49 0 00.61.64l2-.6a.5.5 0 01.46.08z" style="fill:#fff48c"/><path class="cls-3" d="m23.427 18.829a.49.49 0 00-.38-.35.51.51 0 00-.5.19l-1.22 1.63a.46.46 0 01-.42.2l-1.9-.07a.5.5 0 00-.43.79l1.09 1.54a.48.48 0 01.06.46l-.72 1.92a.5.5 0 00.1.52.49.49 0 00.51.13l2-.6a.5.5 0 01.46.08l1.6 1.27a.49.49 0 00.52 0 .48.48 0 00.29-.44v-2a.51.51 0 01.23-.41l1.63-1.09a.5.5 0 00-.12-.89l-1.92-.57a.48.48 0 01-.32-.33z" style="fill:none;stroke-linecap:round;stroke-linejoin:round;stroke:#191816"/><path class="cls-15" d="m53.777 8.4688a.62.62 0 01.17-.64.63.63 0 01.64-.14l2.42.87a.61.61 0 00.57-.08l1.93-1.34a.63.63 0 01.66 0 .61.61 0 01.33.57l-.07 2.37a.61.61 0 00.26.53l2.06 1.52a.61.61 0 01.25.61.63.63 0 01-.44.5l-2.46.71a.62.62 0 00-.42.41l-.81 2.43a.63.63 0 01-.51.43.61.61 0 01-.6-.27l-1.39-2a.64.64 0 00-.52-.28h-2.47a.62.62 0 01-.49-1l1.57-2a.59.59 0 00.1-.57z" style="fill:#ffe500"/><path class="cls-16" d="m58.867 16.699-2.57-8.4.71.25a.61.61 0 00.57-.08l1.93-1.33a.63.63 0 01.66 0 .61.61 0 01.33.57l-.07 2.37a.61.61 0 00.26.53l2.06 1.52a.61.61 0 01.25.61.63.63 0 01-.44.5l-2.46.71a.62.62 0 00-.42.41z" style="fill:#fff48c"/><path class="cls-3" d="m53.777 8.4688a.62.62 0 01.17-.64.63.63 0 01.64-.14l2.42.87a.61.61 0 00.57-.08l1.93-1.34a.63.63 0 01.66 0 .61.61 0 01.33.57l-.07 2.37a.61.61 0 00.26.53l2.06 1.52a.61.61 0 01.25.61.63.63 0 01-.44.5l-2.46.71a.62.62 0 00-.42.41l-.81 2.43a.63.63 0 01-.51.43.61.61 0 01-.6-.27l-1.39-2a.64.64 0 00-.52-.28h-2.47a.62.62 0 01-.49-1l1.57-2a.59.59 0 00.1-.57z" style="fill:none;stroke-linecap:round;stroke-linejoin:round;stroke:#191816"/><path class="cls-15" d="m64.587 18.829a.49.49 0 01.38-.35.51.51 0 01.5.19l1.22 1.63a.46.46 0 00.42.2l1.9-.07a.5.5 0 01.43.79l-1.09 1.54a.48.48 0 00-.06.46l.72 1.92a.5.5 0 01-.1.52.49.49 0 01-.51.13l-1.99-.65a.5.5 0 00-.46.08l-1.6 1.27a.49.49 0 01-.52 0 .48.48 0 01-.29-.44v-2a.51.51 0 00-.23-.41l-1.63-1.09a.5.5 0 01.12-.89l1.91-.52a.48.48 0 00.32-.33z" style="fill:#ffe500"/><path class="cls-16" d="m64.347 26.529 2-6.7.36.47a.46.46 0 00.42.2l1.88-.07a.5.5 0 01.43.79l-1.09 1.54a.48.48 0 00-.06.46l.72 1.92a.49.49 0 01-.61.64l-1.99-.64a.5.5 0 00-.46.08z" style="fill:#fff48c"/><path class="cls-3" d="m64.587 18.829a.49.49 0 01.38-.35.51.51 0 01.5.19l1.22 1.63a.46.46 0 00.42.2l1.9-.07a.5.5 0 01.43.79l-1.09 1.54a.48.48 0 00-.06.46l.72 1.92a.5.5 0 01-.1.52.49.49 0 01-.51.13l-1.99-.65a.5.5 0 00-.46.08l-1.6 1.27a.49.49 0 01-.52 0 .48.48 0 01-.29-.44v-2a.51.51 0 00-.23-.41l-1.63-1.09a.5.5 0 01.12-.89l1.91-.52a.48.48 0 00.32-.33z" style="fill:none;stroke-linecap:round;stroke-linejoin:round;stroke:#191816"/><path class="cls-15" d="m50.347 5.9088a.8.8 0 00-.44-1.36l-3.24-.47a.79.79 0 01-.6-.44l-1.34-2.71a.8.8 0 00-1.44 0l-1.34 2.71a.79.79 0 01-.6.44l-3.24.47a.8.8 0 00-.44 1.36l2.34 2.29a.76.76 0 01.23.7l-.55 3.24a.8.8 0 001.16.84l2.79-1.46a.75.75 0 01.74 0l2.79 1.46a.8.8 0 001.16-.84l-.55-3.23a.76.76 0 01.23-.7z" style="fill:#ffe500"/><path class="cls-16" d="m39.687 12.139 7.93-7.92-1-.14a.79.79 0 01-.6-.44l-1.34-2.71a.8.8 0 00-1.44 0l-1.29 2.71a.79.79 0 01-.6.44l-3.24.47a.8.8 0 00-.44 1.36l2.34 2.29a.76.76 0 01.23.7z" style="fill:#fff48c"/><path class="cls-3" d="m50.347 5.9088a.8.8 0 00-.44-1.36l-3.24-.47a.79.79 0 01-.6-.44l-1.34-2.71a.8.8 0 00-1.44 0l-1.34 2.71a.79.79 0 01-.6.44l-3.24.47a.8.8 0 00-.44 1.36l2.34 2.29a.76.76 0 01.23.7l-.55 3.24a.8.8 0 001.16.84l2.79-1.46a.75.75 0 01.74 0l2.79 1.46a.8.8 0 001.16-.84l-.55-3.23a.76.76 0 01.23-.7z" style="fill:none;stroke-linecap:round;stroke-linejoin:round;stroke:#191816"/></svg>
