<svg version="1.1" viewBox="0 0 88.014 88.011" xmlns="http://www.w3.org/2000/svg"><defs><style>.cls-1,.cls-10,.cls-21,.cls-4,.cls-7{fill:none;}.cls-2,.cls-30{fill:#e8f4fa;}.cls-28,.cls-3{fill:#fff;}.cls-4{stroke:#4f4a45;}.cls-10,.cls-13,.cls-14,.cls-15,.cls-19,.cls-21,.cls-22,.cls-28,.cls-4{stroke-linecap:round;}.cls-10,.cls-13,.cls-14,.cls-15,.cls-19,.cls-21,.cls-22,.cls-28,.cls-30,.cls-33,.cls-34,.cls-4,.cls-7,.cls-9{stroke-linejoin:round;}.cls-14,.cls-5{fill:#ffe500;}.cls-6{fill:#fff48c;}.cls-10,.cls-13,.cls-14,.cls-15,.cls-19,.cls-22,.cls-23,.cls-28,.cls-29,.cls-30,.cls-33,.cls-34,.cls-7,.cls-9{stroke:#191816;}.cls-8{fill:#191816;opacity:0.15;}.cls-9{fill:#8ca4b8;}.cls-11{clip-path:url(#clip-path);}.cls-12,.cls-15,.cls-34{fill:#f0f0f0;}.cls-13{fill:#d18660;}.cls-16{fill:#bd704a;}.cls-17,.cls-23{fill:#ffb0ca;}.cls-18{fill:#fcd;}.cls-19{fill:#ffda8f;}.cls-20{fill:#ffbe3d;}.cls-21{stroke:#ff87af;}.cls-22{fill:#c8ffa1;}.cls-23,.cls-29{stroke-miterlimit:10;}.cls-24{fill:#614b44;}.cls-25{fill:#947063;}.cls-26{fill:#724f3d;}.cls-27{fill:#a86c4d;}.cls-29{fill:#6dd627;}.cls-31{fill:#adc4d9;}.cls-32,.cls-33{fill:#c0dceb;}</style><clipPath id="clip-path"><circle class="cls-1" cx="50" cy="56" r="40" style="fill:none"/></clipPath></defs><title>19- team-idea-brainstorm-3</title><g transform="translate(-5.9929 -7.9929)"><g data-name="New Symbol 9"><path class="cls-2" d="m90 56a40 40 0 10-76.44 16.5h72.88a39.85 39.85 0 003.56-16.5z" style="fill:#e8f4fa"/><path class="cls-3" d="m13.56 72.5a40 40 0 0072.88 0z" style="fill:#fff"/><line class="cls-4" x1="11" x2="89" y1="72.5" y2="72.5" style="fill:none;stroke-linecap:round;stroke-linejoin:round;stroke:#4f4a45"/><line class="cls-4" x1="6.5" x2="9" y1="72.5" y2="72.5" style="fill:none;stroke-linecap:round;stroke-linejoin:round;stroke:#4f4a45"/><line class="cls-4" x1="91" x2="93.5" y1="72.5" y2="72.5" style="fill:none;stroke-linecap:round;stroke-linejoin:round;stroke:#4f4a45"/></g></g><g transform="translate(-5.9929 -7.9929)"><path class="cls-5" d="m59 20a7 7 0 10-12.39 4.47 6 6 0 011.39 3.83v2.7a2 2 0 002 2h4a2 2 0 002-2v-2.7a6 6 0 011.39-3.83 7 7 0 001.61-4.47z" style="fill:#ffe500"/><path class="cls-6" d="m52 16a7 7 0 016.83 5.49 6.67 6.67 0 00.17-1.49 7 7 0 00-14 0 6.67 6.67 0 00.17 1.49 7 7 0 016.83-5.49z" style="fill:#fff48c"/><path class="cls-7" d="m59 20a7 7 0 10-12.39 4.47 6 6 0 011.39 3.83v2.7a2 2 0 002 2h4a2 2 0 002-2v-2.7a6 6 0 011.39-3.83 7 7 0 001.61-4.47z" style="fill:none;stroke-linejoin:round;stroke:#191816"/><ellipse class="cls-8" cx="46.75" cy="81.25" rx="16.75" ry="1.75" style="fill:#191816;opacity:.15"/><path class="cls-9" d="m48 30v1a2 2 0 002 2h4a2 2 0 002-2v-1z" style="fill:#8ca4b8;stroke-linejoin:round;stroke:#191816"/><path class="cls-9" d="m54 33.5a2 2 0 01-4 0v-.5h4z" style="fill:#8ca4b8;stroke-linejoin:round;stroke:#191816"/><line class="cls-10" x1="52" x2="52" y1="10.5" y2="8.5" style="fill:none;stroke-linecap:round;stroke-linejoin:round;stroke:#191816"/><line class="cls-10" x1="58.72" x2="60.13" y1="13.28" y2="11.87" style="fill:none;stroke-linecap:round;stroke-linejoin:round;stroke:#191816"/><line class="cls-10" x1="61.5" x2="63.5" y1="20" y2="20" style="fill:none;stroke-linecap:round;stroke-linejoin:round;stroke:#191816"/><line class="cls-10" x1="45.28" x2="43.87" y1="13.28" y2="11.87" style="fill:none;stroke-linecap:round;stroke-linejoin:round;stroke:#191816"/><line class="cls-10" x1="42.5" x2="40.5" y1="20" y2="20" style="fill:none;stroke-linecap:round;stroke-linejoin:round;stroke:#191816"/><g class="cls-11" clip-path="url(#clip-path)"><path class="cls-12" d="m42 65a15.5 15.5 0 00-31 0v7.5h31z" style="fill:#f0f0f0"/><path class="cls-3" d="m26.5 49.5a15.5 15.5 0 00-15.5 15.5v4.5a15.5 15.5 0 0131 0v-4.5a15.5 15.5 0 00-15.5-15.5z" style="fill:#fff"/><path class="cls-10" d="m42 65a15.5 15.5 0 00-31 0v7.5h31z" style="fill:none;stroke-linecap:round;stroke-linejoin:round;stroke:#191816"/><line class="cls-10" x1="36" x2="36" y1="61" y2="72.5" style="fill:none;stroke-linecap:round;stroke-linejoin:round;stroke:#191816"/><path class="cls-13" d="m30 77.5a2.5 2.5 0 01-2.5 2.5h-5.5v-5h5.5a2.5 2.5 0 012.5 2.5z" style="fill:#d18660;stroke-linecap:round;stroke-linejoin:round;stroke:#191816"/><path class="cls-12" d="m17 71.58a2.92 2.92 0 002.92 2.92h4.08a1 1 0 011 1v4a1 1 0 01-1 1h-4.08a8.92 8.92 0 01-8.92-8.92z" style="fill:#f0f0f0"/><path class="cls-10" d="m17 61v10.58a2.92 2.92 0 002.92 2.92h4.08a1 1 0 011 1v4a1 1 0 01-1 1h-4.08a8.92 8.92 0 01-8.92-8.92" style="fill:none;stroke-linecap:round;stroke-linejoin:round;stroke:#191816"/><line class="cls-10" x1="34" x2="30.75" y1="64.5" y2="64.5" style="fill:none;stroke-linecap:round;stroke-linejoin:round;stroke:#191816"/><path class="cls-14" d="m24 55.5h5l-.81 3.24a1 1 0 01-1 .76h-1.41a1 1 0 01-1-.76z" style="fill:#ffe500;stroke-linecap:round;stroke-linejoin:round;stroke:#191816"/><polygon class="cls-14" points="29 72.5 27.5 59.5 25.5 59.5 24 72.5" style="fill:#ffe500;stroke-linecap:round;stroke-linejoin:round;stroke:#191816"/><path class="cls-15" d="m26.5 50.72v6l-4 2-.81.4a1 1 0 01-1.43-.74l-.62-4a4.52 4.52 0 012.11-4.62 2.08 2.08 0 01.52-.23c.58-.14 1.18 1 1.79.91z" style="fill:#f0f0f0;stroke-linecap:round;stroke-linejoin:round;stroke:#191816"/><path class="cls-15" d="m33.34 54.37-.61 4a1 1 0 01-1.44.74l-.81-.4-4-2v-6l2.42-.3c.61.07 1.21-1.05 1.79-.91a2.77 2.77 0 01.57.26 4.53 4.53 0 012.08 4.61z" style="fill:#f0f0f0;stroke-linecap:round;stroke-linejoin:round;stroke:#191816"/><polygon class="cls-13" points="23 52 23 46.5 30 46.5 30 52 26.5 55.5" style="fill:#d18660;stroke-linecap:round;stroke-linejoin:round;stroke:#191816"/><path class="cls-16" d="m23 50a12.26 12.26 0 007 0v-3.5h-7z" style="fill:#bd704a"/><polygon class="cls-10" points="23 52 23 46.5 30 46.5 30 52 26.5 55.5" style="fill:none;stroke-linecap:round;stroke-linejoin:round;stroke:#191816"/><polygon class="cls-10" points="23 52 23 46.5 30 46.5 30 52 26.5 55.5" style="fill:none;stroke-linecap:round;stroke-linejoin:round;stroke:#191816"/><path class="cls-17" d="m77.5 49a14.92 14.92 0 00-14.61 11.5 1 1 0 00.39 1 33.81 33.81 0 004.61 2.81 1 1 0 01.61.92v7.27h18v-7.26a1 1 0 01.61-.92 33.81 33.81 0 004.61-2.81 1 1 0 00.39-1 14.92 14.92 0 00-14.61-11.51z" style="fill:#ffb0ca"/><path class="cls-18" d="m63.28 61.51.18.12a15 15 0 0128.08 0l.18-.12a1 1 0 00.39-1 15 15 0 00-29.22 0 1 1 0 00.39 1z" style="fill:#fcd"/><path class="cls-10" d="m77.5 49a14.92 14.92 0 00-14.61 11.5 1 1 0 00.39 1 33.81 33.81 0 004.61 2.81 1 1 0 01.61.92v7.27h18v-7.26a1 1 0 01.61-.92 33.81 33.81 0 004.61-2.81 1 1 0 00.39-1 14.92 14.92 0 00-14.61-11.51z" style="fill:none;stroke-linecap:round;stroke-linejoin:round;stroke:#191816"/><polygon class="cls-19" points="81 52 81 46.5 74 46.5 74 52 77.5 52" style="fill:#ffda8f;stroke-linecap:round;stroke-linejoin:round;stroke:#191816"/><path class="cls-20" d="m81 49.5a12.26 12.26 0 01-7 0v-3h7z" style="fill:#ffbe3d"/><polygon class="cls-10" points="81 52 81 46.5 74 46.5 74 52 77.5 52" style="fill:none;stroke-linecap:round;stroke-linejoin:round;stroke:#191816"/><line class="cls-10" x1="83" x2="83" y1="50.5" y2="53.5" style="fill:none;stroke-linecap:round;stroke-linejoin:round;stroke:#191816"/><line class="cls-10" x1="72" x2="72" y1="53.5" y2="50.5" style="fill:none;stroke-linecap:round;stroke-linejoin:round;stroke:#191816"/><path class="cls-21" d="m76.5 53.43v16.57" style="fill:none;stroke-linecap:round;stroke-linejoin:round;stroke:#ff87af"/><line class="cls-21" x1="78.5" x2="78.5" y1="53.43" y2="71.5" style="fill:none;stroke-linecap:round;stroke-linejoin:round;stroke:#ff87af"/><path class="cls-10" d="m77.5 53.5s-4.5.5-3.5 2c.37.55.93.43 1.5.06a9.76 9.76 0 002-2.06z" style="fill:none;stroke-linecap:round;stroke-linejoin:round;stroke:#191816"/><path class="cls-10" d="m77.5 53.5a31.7 31.7 0 00-1.5 8.5" style="fill:none;stroke-linecap:round;stroke-linejoin:round;stroke:#191816"/><path class="cls-10" d="m77.5 53.5s4.5.5 3.5 2c-.36.55-.93.43-1.5.06a9.76 9.76 0 01-2-2.06z" style="fill:none;stroke-linecap:round;stroke-linejoin:round;stroke:#191816"/><path class="cls-10" d="m77.5 53.5a31.7 31.7 0 011.5 8.5" style="fill:none;stroke-linecap:round;stroke-linejoin:round;stroke:#191816"/><line class="cls-10" x1="68" x2="68.5" y1="58" y2="65.5" style="fill:none;stroke-linecap:round;stroke-linejoin:round;stroke:#191816"/><line class="cls-10" x1="64.19" x2="65.01" y1="62.13" y2="60.5" style="fill:none;stroke-linecap:round;stroke-linejoin:round;stroke:#191816"/><line class="cls-10" x1="87" x2="86.5" y1="58" y2="65.5" style="fill:none;stroke-linecap:round;stroke-linejoin:round;stroke:#191816"/><line class="cls-22" x1="90.82" x2="90.01" y1="62.13" y2="60.5" style="fill:#c8ffa1;stroke-linecap:round;stroke-linejoin:round;stroke:#191816"/><path class="cls-19" d="m87.11 64.32a1 1 0 00-.61.92v7.26h5v-10.84a33 33 0 01-4.39 2.66z" style="fill:#ffda8f;stroke-linecap:round;stroke-linejoin:round;stroke:#191816"/><path class="cls-19" d="m68.5 65.24a1 1 0 00-.61-.92 33 33 0 01-4.39-2.66v6.34a1 1 0 01-2 0v-8l.89-.45a2 2 0 001.11-1.79v-.26a2 2 0 00-2-2v-5.5a1.5 1.5 0 00-3 0v4.41l-1.72.43a1.89 1.89 0 00-1.24 2.37l.24 1a2.12 2.12 0 00.8 1.21c0 .63-.08 1.16-.08 1.32v7.26a6 6 0 0011.5 2.42 5.86 5.86 0 00.51-2.37z" style="fill:#ffda8f;stroke-linecap:round;stroke-linejoin:round;stroke:#191816"/><path class="cls-19" d="m57 59.69 2.58-.64a1.9 1.9 0 001.24-2.37l-.24-1a1.89 1.89 0 00-2.2-1.51l-2.58.64a1.89 1.89 0 00-1.24 2.37l.24 1a1.89 1.89 0 002.2 1.51z" style="fill:#ffda8f;stroke-linecap:round;stroke-linejoin:round;stroke:#191816"/><path class="cls-23" d="m77.5 53.5c-4.07 0-5.34-2.45-5.39-2.55a1 1 0 011.78-.9s.84 1.45 3.61 1.45 3.58-1.41 3.62-1.47a1 1 0 011.34-.41 1 1 0 01.43 1.38c-.05.05-1.32 2.5-5.39 2.5z" style="fill:#ffb0ca;stroke-miterlimit:10;stroke:#191816"/></g><path class="cls-13" d="m36.5 36v-2.5a10 10 0 00-20 0v2.5a2 2 0 000 4h.12a10 10 0 0019.76 0h.12a2 2 0 000-4z" style="fill:#d18660;stroke-linecap:round;stroke-linejoin:round;stroke:#191816"/><path class="cls-10" d="m23.48 42.8a4.38 4.38 0 006 0" style="fill:none;stroke-linecap:round;stroke-linejoin:round;stroke:#191816"/><circle class="cls-16" cx="20.75" cy="40.25" r="1.25" style="fill:#bd704a"/><circle class="cls-16" cx="32.25" cy="40.25" r="1.25" style="fill:#bd704a"/><path class="cls-10" d="m32 37a1.63 1.63 0 00-3 0" style="fill:none;stroke-linecap:round;stroke-linejoin:round;stroke:#191816"/><path class="cls-10" d="m24 37a1.63 1.63 0 00-3 0" style="fill:none;stroke-linecap:round;stroke-linejoin:round;stroke:#191816"/><path class="cls-24" d="m27 22.5a11 11 0 00-11 11v2.5a3.48 3.48 0 003.31-2.4l.88-2.6a1 1 0 011.26-.64 21.26 21.26 0 005.55 1.14 25.58 25.58 0 006.5-1.5l1.21 3.63a3.48 3.48 0 003.29 2.37v-2.5a11 11 0 00-11-11z" style="fill:#614b44"/><path class="cls-25" d="m27 22.5a11 11 0 00-11 11v2.5a11 11 0 0122 0v-2.5a11 11 0 00-11-11z" style="fill:#947063"/><path class="cls-10" d="m27 22.5v0a11 11 0 00-11 11v2.5a3.48 3.48 0 003.31-2.4l.88-2.6a1 1 0 011.26-.64 21.26 21.26 0 005.55 1.14 25.58 25.58 0 006.5-1.5l1.21 3.63a3.48 3.48 0 003.29 2.37v-2.5a11 11 0 00-11-11z" style="fill:none;stroke-linecap:round;stroke-linejoin:round;stroke:#191816"/><path class="cls-24" d="m39 36s-4 1-7-4c0 0-.5 2.5-2.5 2.5 0 0 1.5-3-2.5-3a5.5 5.5 0 010-11s8 0 11.5 7c0 0 1.5 3 .5 8.5z" style="fill:#614b44"/><path class="cls-25" d="m27 23.5s8 0 11.5 7a10.25 10.25 0 01.78 3.37 13 13 0 00-.78-6.37c-3.5-7-11.5-7-11.5-7a5.5 5.5 0 00-5.5 5.5 5.72 5.72 0 00.21 1.5 5.5 5.5 0 015.29-4z" style="fill:#947063"/><path class="cls-10" d="m39 36s-4 1-7-4c0 0-.5 2.5-2.5 2.5 0 0 1.5-3-2.5-3a5.5 5.5 0 010-11s8 0 11.5 7c0 0 1.5 3 .5 8.5z" style="fill:none;stroke-linecap:round;stroke-linejoin:round;stroke:#191816"/><circle class="cls-26" cx="76.38" cy="23.25" r="5.25" style="fill:#724f3d"/><path class="cls-27" d="m76.38 20.5a5.25 5.25 0 00-5.09 4 5.16 5.16 0 01-.16-1.25 5.25 5.25 0 0110.5 0 5.16 5.16 0 01-.17 1.25 5.24 5.24 0 00-5.08-4z" style="fill:#a86c4d"/><circle class="cls-10" cx="76.38" cy="23.25" r="5.25" style="fill:none;stroke-linecap:round;stroke-linejoin:round;stroke:#191816"/><circle class="cls-26" cx="77.5" cy="33.5" r="12" style="fill:#724f3d"/><path class="cls-27" d="m77.5 24.5a12 12 0 00-11.9 10.5 12.32 12.32 0 01-.1-1.5 12 12 0 0124 0 12.32 12.32 0 01-.1 1.5 12 12 0 00-11.9-10.5z" style="fill:#a86c4d"/><circle class="cls-10" cx="77.5" cy="33.5" r="12" style="fill:none;stroke-linecap:round;stroke-linejoin:round;stroke:#191816"/><path class="cls-19" d="m65.5 38a2 2 0 002 2h.12a10 10 0 0019.76 0h.12a2 2 0 000-4v-1.61a10.14 10.14 0 01-6.71-3.18 19.59 19.59 0 01-2.27-3.91 13.36 13.36 0 01-3.59 5.43 9.4 9.4 0 01-7.43 1.62v1.65a2 2 0 00-2 2z" style="fill:#ffda8f;stroke-linecap:round;stroke-linejoin:round;stroke:#191816"/><path class="cls-10" d="m72 37a1.63 1.63 0 013 0" style="fill:none;stroke-linecap:round;stroke-linejoin:round;stroke:#191816"/><path class="cls-10" d="m80 37a1.63 1.63 0 013 0" style="fill:none;stroke-linecap:round;stroke-linejoin:round;stroke:#191816"/><circle class="cls-20" cx="83.25" cy="40.25" r="1.25" style="fill:#ffbe3d"/><circle class="cls-20" cx="71.75" cy="40.25" r="1.25" style="fill:#ffbe3d"/><path class="cls-10" d="m79.88 43a3.63 3.63 0 01-5 0" style="fill:none;stroke-linecap:round;stroke-linejoin:round;stroke:#191816"/><circle class="cls-28" cx="67" cy="40" r="1" style="fill:#fff;stroke-linecap:round;stroke-linejoin:round;stroke:#191816"/><polygon class="cls-28" points="67 45.5 66 42 67 41 68 42" style="fill:#fff;stroke-linecap:round;stroke-linejoin:round;stroke:#191816"/><circle class="cls-28" cx="88" cy="40" r="1" style="fill:#fff;stroke-linecap:round;stroke-linejoin:round;stroke:#191816"/><polygon class="cls-28" points="88 45.5 89 42 88 41 87 42" style="fill:#fff;stroke-linecap:round;stroke-linejoin:round;stroke:#191816"/><line class="cls-10" x1="73.63" x2="70.63" y1="21" y2="18.5" style="fill:none;stroke-linecap:round;stroke-linejoin:round;stroke:#191816"/><circle class="cls-29" cx="69.63" cy="17.5" r="1.5" style="fill:#6dd627;stroke-miterlimit:10;stroke:#191816"/><path class="cls-26" d="m77.5 24a11 11 0 0111 9.9 1 1 0 01-1 1.1h-19.94a1 1 0 01-1-1.1 11 11 0 0110.94-9.9z" style="fill:#724f3d"/><path class="cls-27" d="m88.45 33.9a11 11 0 00-21.9 0 1 1 0 00.31.82 11 11 0 0121.28 0 1 1 0 00.31-.82z" style="fill:#a86c4d"/><path class="cls-10" d="m77.5 24a11 11 0 0111 9.9 1 1 0 01-1 1.1h-19.94a1 1 0 01-1-1.1 11 11 0 0110.94-9.9z" style="fill:none;stroke-linecap:round;stroke-linejoin:round;stroke:#191816"/><line class="cls-10" x1="85" x2="85" y1="35" y2="31.5" style="fill:none;stroke-linecap:round;stroke-linejoin:round;stroke:#191816"/><line class="cls-10" x1="81.5" x2="81.5" y1="35" y2="31.5" style="fill:none;stroke-linecap:round;stroke-linejoin:round;stroke:#191816"/><line class="cls-10" x1="78" x2="78" y1="35" y2="31.5" style="fill:none;stroke-linecap:round;stroke-linejoin:round;stroke:#191816"/><line class="cls-10" x1="74.5" x2="74.5" y1="35" y2="31.5" style="fill:none;stroke-linecap:round;stroke-linejoin:round;stroke:#191816"/><line class="cls-10" x1="71" x2="71" y1="35" y2="31.5" style="fill:none;stroke-linecap:round;stroke-linejoin:round;stroke:#191816"/><path class="cls-30" d="m41.37 78h-2.23l4.77-14.81a1 1 0 011-.69h1.5z" style="fill:#e8f4fa;stroke-linejoin:round;stroke:#191816"/><path class="cls-31" d="m60.87 78h-19.5l5-15.5h18.13a1 1 0 011 1.31z" style="fill:#adc4d9"/><path class="cls-32" d="m46.37 62.5h18.13a1 1 0 011 1.31l-.6 1.86h-19.55z" style="fill:#c0dceb"/><path class="cls-33" d="m60.87 78h-20.5v2.5h18.5a2 2 0 002-2z" style="fill:#c0dceb;stroke-linejoin:round;stroke:#191816"/><path class="cls-30" d="m40.37 78h-9a.5.5 0 00-.5.5 2 2 0 002 2h7.55z" style="fill:#e8f4fa;stroke-linejoin:round;stroke:#191816"/><path class="cls-34" d="m55.22 69.7a1.11 1.11 0 01.53-.94 1.13 1.13 0 00-.9-.48c-.39 0-.75.22-.94.22s-.5-.22-.81-.21a1.19 1.19 0 00-1 .61 2.58 2.58 0 00.31 2.48c.21.3.45.63.78.62s.43-.2.8-.2.48.2.81.19.55-.3.75-.6a2.41 2.41 0 00.34-.7 1.08 1.08 0 01-.67-.99z" style="fill:#f0f0f0;stroke-linejoin:round;stroke:#191816"/><line class="cls-10" x1="54.37" x2="54.82" y1="67" y2="66.55" style="fill:none;stroke-linecap:round;stroke-linejoin:round;stroke:#191816"/><path class="cls-7" d="m60.87 78h-19.5l5-15.5h18.13a1 1 0 011 1.31z" style="fill:none;stroke-linejoin:round;stroke:#191816"/></g></svg>
