<svg version="1.1" viewBox="0 0 88.014 79.989" xmlns="http://www.w3.org/2000/svg"><defs><style>.cls-1{fill:#e8f4fa;}.cls-2,.cls-8{fill:#fff;}.cls-3,.cls-9{fill:none;}.cls-3{stroke:#4f4a45;}.cls-10,.cls-11,.cls-3,.cls-8,.cls-9{stroke-linecap:round;stroke-linejoin:round;}.cls-4{fill:#191816;opacity:0.15;}.cls-5{fill:#9ceb60;}.cls-6{fill:#ffe500;}.cls-7{fill:#4acfff;}.cls-8{stroke:#c0dceb;}.cls-10,.cls-11,.cls-9{stroke:#191816;}.cls-10{fill:#ff6242;}.cls-11{fill:#e04122;}</style></defs><title>06- map-location-2</title><g transform="translate(-5.8329 -16.004)"><path class="cls-1" d="m89.84 56a40 40 0 10-76.44 16.5h72.87a39.7 39.7 0 003.57-16.5z" style="fill:#e8f4fa"/><path class="cls-2" d="m13.4 72.5a40 40 0 0072.87 0z" style="fill:#fff"/><line class="cls-3" x1="10.84" x2="88.84" y1="72.5" y2="72.5" style="fill:none;stroke-linecap:round;stroke-linejoin:round;stroke:#4f4a45"/><line class="cls-3" x1="6.34" x2="8.84" y1="72.5" y2="72.5" style="fill:none;stroke-linecap:round;stroke-linejoin:round;stroke:#4f4a45"/><line class="cls-3" x1="90.84" x2="93.34" y1="72.5" y2="72.5" style="fill:none;stroke-linecap:round;stroke-linejoin:round;stroke:#4f4a45"/></g><g transform="translate(-5.8329 -16.004)"><ellipse class="cls-4" cx="49.84" cy="79.75" rx="31" ry="3.75" style="fill:#191816;opacity:.15"/><path class="cls-5" d="m23.55 35.9 7.08-1.9a7.88 7.88 0 013.45-.17l14.41 2.47a8.16 8.16 0 002.7 0l14.4-2.47a7.93 7.93 0 013.46.17l7.08 1.93a3 3 0 012.21 2.89v38.06a2 2 0 01-2.53 1.93l-6.76-1.81a7.93 7.93 0 00-3.46-.17l-14.4 2.47a8.16 8.16 0 01-2.7 0l-14.41-2.5a7.88 7.88 0 00-3.45.17l-6.77 1.84a2 2 0 01-2.52-1.93v-38.09a3 3 0 012.21-2.89z" style="fill:#9ceb60"/><path class="cls-6" d="m67.34 76.69a7.73 7.73 0 011.71.28l6.76 1.84a2 2 0 002.53-1.93v-20.38l-11-3z" style="fill:#ffe500"/><path class="cls-6" d="m35.34 50v-16l-1.26-.21a7.88 7.88 0 00-3.45.17l-7.08 1.94a3 3 0 00-2.21 2.89v13.71l11-3z" style="fill:#ffe500"/><path class="cls-7" d="m38.34 54.53v9.47l11.5 2 14.5-2.49v-9.51l-14.5 2.5z" style="fill:#4acfff"/><path class="cls-8" d="m56.34 51.39v-16l-3 .51v16l-3.5.6-11.5-2v-16l-3-.52v16.02l-3-.51-11 3v4l11-3 3 .51v23l3 .52v-10.52l11.5 2 14.5-2.49v10.49l1.25-.21a8.58 8.58 0 011.75-.11v-23.18l11 3v-4l-11-3zm8 12.12-14.5 2.49-11.5-2v-9.5l11.5 2 14.5-2.5z" style="fill:#fff;stroke-linecap:round;stroke-linejoin:round;stroke:#c0dceb"/><path class="cls-4" d="m67.34 41.5-17.5 19-17.5 1-11 12.77v2.61a2 2 0 002.52 1.93l6.77-1.81a7.88 7.88 0 013.45-.17l14.41 2.47a8.16 8.16 0 002.7 0l14.4-2.47a7.93 7.93 0 013.46.17l6.76 1.84a2 2 0 002.53-1.93v-38.12a3 3 0 00-.69-1.9z" style="fill:#191816;opacity:.15"/><line class="cls-9" x1="67.34" x2="67.34" y1="33.69" y2="76.69" style="fill:none;stroke-linecap:round;stroke-linejoin:round;stroke:#191816"/><line class="cls-9" x1="49.84" x2="49.84" y1="79.38" y2="36.38" style="fill:none;stroke-linecap:round;stroke-linejoin:round;stroke:#191816"/><line class="cls-9" x1="32.34" x2="32.34" y1="33.69" y2="76.69" style="fill:none;stroke-linecap:round;stroke-linejoin:round;stroke:#191816"/><path class="cls-9" d="m23.55 35.9 7.08-1.9a7.88 7.88 0 013.45-.17l14.41 2.47a8.16 8.16 0 002.7 0l14.4-2.47a7.93 7.93 0 013.46.17l7.08 1.93a3 3 0 012.21 2.89v38.06a2 2 0 01-2.53 1.93l-6.76-1.81a7.93 7.93 0 00-3.46-.17l-14.4 2.47a8.16 8.16 0 01-2.7 0l-14.41-2.5a7.88 7.88 0 00-3.45.17l-6.77 1.84a2 2 0 01-2.52-1.93v-38.09a3 3 0 012.21-2.89z" style="fill:none;stroke-linecap:round;stroke-linejoin:round;stroke:#191816"/><circle class="cls-4" cx="26.84" cy="49" r="2" style="fill:#191816;opacity:.15"/><circle class="cls-4" cx="40.84" cy="70" r="2" style="fill:#191816;opacity:.15"/><circle class="cls-4" cx="59.84" cy="49" r="2" style="fill:#191816;opacity:.15"/><circle class="cls-4" cx="73.34" cy="75" r="2" style="fill:#191816;opacity:.15"/><path class="cls-10" d="m75.84 70c0 1.38-2.5 4.5-2.5 4.5s-2.5-3.12-2.5-4.5a2.5 2.5 0 015 0z" style="fill:#ff6242;stroke-linecap:round;stroke-linejoin:round;stroke:#191816"/><path class="cls-10" d="m43.34 65c0 1.38-2.5 4.5-2.5 4.5s-2.5-3.12-2.5-4.5a2.5 2.5 0 015 0z" style="fill:#ff6242;stroke-linecap:round;stroke-linejoin:round;stroke:#191816"/><path class="cls-10" d="m29.34 44c0 1.38-2.5 4.5-2.5 4.5s-2.5-3.12-2.5-4.5a2.5 2.5 0 015 0z" style="fill:#ff6242;stroke-linecap:round;stroke-linejoin:round;stroke:#191816"/><path class="cls-10" d="m65.34 38c0 3-5.5 10.5-5.5 10.5s-5.5-7.5-5.5-10.5a5.5 5.5 0 0111 0z" style="fill:#ff6242;stroke-linecap:round;stroke-linejoin:round;stroke:#191816"/><circle class="cls-11" cx="59.84" cy="38" r="2.5" style="fill:#e04122;stroke-linecap:round;stroke-linejoin:round;stroke:#191816"/></g></svg>
