<svg version="1.1" viewBox="0 0 88.014 79.989" xmlns="http://www.w3.org/2000/svg"><defs><style>.cls-1{fill:#e8f4fa;}.cls-17,.cls-2,.cls-7{fill:#fff;}.cls-3{fill:none;}.cls-10,.cls-11,.cls-12,.cls-13,.cls-14,.cls-15,.cls-16,.cls-17,.cls-3,.cls-7{stroke:#191816;stroke-linejoin:round;}.cls-10,.cls-11,.cls-12,.cls-13,.cls-14,.cls-15,.cls-3,.cls-7{stroke-linecap:round;}.cls-15,.cls-16,.cls-4{fill:#00b8f0;}.cls-5{fill:#4acfff;}.cls-6{fill:#009fd9;}.cls-8{fill:#e0e0e0;}.cls-9{fill:#87898c;}.cls-10{fill:#daedf7;}.cls-11{fill:#ff6242;}.cls-12{fill:#fff48c;}.cls-13{fill:#6dd627;}.cls-14{fill:#ffe500;}</style></defs><title>10- web-programming-mouse-pointer</title><g transform="translate(-6.3329 -16.004)"><g data-name="New Symbol 29"><path class="cls-1" d="m90.34 56a40 40 0 10-76.44 16.5h72.87a39.7 39.7 0 003.57-16.5z" style="fill:#e8f4fa"/><path class="cls-2" d="m13.9 72.5a40 40 0 0072.87 0z" style="fill:#fff"/><line class="cls-3" x1="11.34" x2="89.34" y1="72.5" y2="72.5" style="fill:none;stroke-linecap:round;stroke-linejoin:round;stroke:#191816"/><line class="cls-3" x1="6.84" x2="9.34" y1="72.5" y2="72.5" style="fill:none;stroke-linecap:round;stroke-linejoin:round;stroke:#191816"/><line class="cls-3" x1="91.34" x2="93.84" y1="72.5" y2="72.5" style="fill:none;stroke-linecap:round;stroke-linejoin:round;stroke:#191816"/></g></g><g transform="translate(-6.3329 -16.004)"><rect class="cls-4" x="23.49" y="41.37" width="48.3" height="34.5" rx="3.6" ry="3.6" style="fill:#00b8f0"/><path class="cls-5" d="m52.7 41.37h-25.07a4.13 4.13 0 00-4.14 4.13v25.08z" style="fill:#4acfff"/><path class="cls-6" d="m37.29 62.75a2.77 2.77 0 01-2.76-2.75v-.45l-2.76 2.75v.45a2.77 2.77 0 002.76 2.77h34.47a2.78 2.78 0 002.76-2.77z" style="fill:#009fd9"/><polygon class="cls-6" points="31.77 62.3 34.53 59.54 34.53 41.37 31.77 41.37" style="fill:#009fd9"/><rect class="cls-3" x="23.49" y="41.37" width="48.3" height="34.5" rx="3.6" ry="3.6" style="fill:none;stroke-linecap:round;stroke-linejoin:round;stroke:#191816"/><path class="cls-7" d="m67.65 75.86a4.14 4.14 0 004.14-4.14v-1.37h-48.3v1.37a4.14 4.14 0 004.14 4.14z" style="fill:#fff;stroke-linecap:round;stroke-linejoin:round;stroke:#191816"/><polygon class="cls-8" points="44.19 75.86 51.09 75.86 51.78 81.39 43.5 81.39" style="fill:#e0e0e0"/><polygon class="cls-9" points="44.19 75.86 51.09 75.86 51.35 77.94 43.93 77.94" style="fill:#87898c"/><polygon class="cls-3" points="44.19 75.86 51.09 75.86 51.78 81.39 43.5 81.39" style="fill:none;stroke-linecap:round;stroke-linejoin:round;stroke:#191816"/><path class="cls-7" d="m56.61 84.15h-17.94a2.75 2.75 0 012.76-2.76h12.42a2.76 2.76 0 012.76 2.76z" style="fill:#fff;stroke-linecap:round;stroke-linejoin:round;stroke:#191816"/><path class="cls-10" d="m34.53 36.54h40v23.81a2.4 2.4 0 01-2.4 2.4h-35.2a2.4 2.4 0 01-2.4-2.4z" style="fill:#daedf7;stroke-linecap:round;stroke-linejoin:round;stroke:#191816"/><path class="cls-7" d="m36.93 28.25h35.22a2.4 2.4 0 012.4 2.4v5.88h-40v-5.88a2.4 2.4 0 012.38-2.4z" style="fill:#fff;stroke-linecap:round;stroke-linejoin:round;stroke:#191816"/><circle class="cls-11" cx="38.67" cy="32.4" r="1.38" style="fill:#ff6242;stroke-linecap:round;stroke-linejoin:round;stroke:#191816"/><circle class="cls-12" cx="44.19" cy="32.4" r="1.38" style="fill:#fff48c;stroke-linecap:round;stroke-linejoin:round;stroke:#191816"/><circle class="cls-13" cx="49.71" cy="32.4" r="1.38" style="fill:#6dd627;stroke-linecap:round;stroke-linejoin:round;stroke:#191816"/><rect class="cls-13" x="46.95" y="44.81" width="5.52" height="5.52" rx="1" ry="1" style="fill:#6dd627;stroke-linecap:round;stroke-linejoin:round;stroke:#191816"/><rect class="cls-11" x="55.92" y="44.81" width="5.52" height="5.52" rx="1" ry="1" style="fill:#ff6242;stroke-linecap:round;stroke-linejoin:round;stroke:#191816"/><rect class="cls-13" x="64.89" y="44.81" width="5.52" height="5.52" rx="1" ry="1" style="fill:#6dd627;stroke-linecap:round;stroke-linejoin:round;stroke:#191816"/><rect class="cls-11" x="46.95" y="53.1" width="5.52" height="5.52" rx="1" ry="1" style="fill:#ff6242;stroke-linecap:round;stroke-linejoin:round;stroke:#191816"/><rect class="cls-13" x="55.92" y="53.1" width="5.52" height="5.52" rx="1" ry="1" style="fill:#6dd627;stroke-linecap:round;stroke-linejoin:round;stroke:#191816"/><rect class="cls-14" x="64.89" y="53.1" width="5.52" height="5.52" rx="1" ry="1" style="fill:#ffe500;stroke-linecap:round;stroke-linejoin:round;stroke:#191816"/><rect class="cls-15" x="38.67" y="39.3" width="5.52" height="2.76" rx="1" ry="1" style="fill:#00b8f0;stroke-linecap:round;stroke-linejoin:round;stroke:#191816"/><rect class="cls-16" x="46.95" y="39.3" width="23.46" height="2.76" rx="1" ry="1" style="fill:#00b8f0;stroke-linejoin:round;stroke:#191816"/><line class="cls-3" x1="38.67" x2="44.19" y1="44.81" y2="44.81" style="fill:none;stroke-linecap:round;stroke-linejoin:round;stroke:#191816"/><line class="cls-3" x1="38.67" x2="44.19" y1="47.57" y2="47.57" style="fill:none;stroke-linecap:round;stroke-linejoin:round;stroke:#191816"/><line class="cls-3" x1="38.67" x2="44.19" y1="50.34" y2="50.34" style="fill:none;stroke-linecap:round;stroke-linejoin:round;stroke:#191816"/><line class="cls-3" x1="38.67" x2="44.19" y1="53.1" y2="53.1" style="fill:none;stroke-linecap:round;stroke-linejoin:round;stroke:#191816"/><line class="cls-3" x1="38.67" x2="44.19" y1="55.85" y2="55.85" style="fill:none;stroke-linecap:round;stroke-linejoin:round;stroke:#191816"/><line class="cls-3" x1="38.67" x2="42.12" y1="58.61" y2="58.61" style="fill:none;stroke-linecap:round;stroke-linejoin:round;stroke:#191816"/><path class="cls-17" d="m83.52 73.72c-.2.73-.6.76-.89.06l-4.53-10.87c-.29-.7 0-1 .75-.74l10.86 4.53c.7.29.67.69-.06.89l-3.48 1a2.67 2.67 0 00-1.7 1.69z" style="fill:#fff;stroke-linejoin:round;stroke:#191816"/><circle class="cls-10" cx="47.64" cy="73.1" r=".57" style="fill:#daedf7;stroke-linecap:round;stroke-linejoin:round;stroke:#191816"/></g></svg>
