<svg version="1.1" viewBox="0 0 80 80" xmlns="http://www.w3.org/2000/svg"><defs><style>.cls-1{fill:#e8f4fa;}.cls-2{fill:#00b8f0;}.cls-3{fill:#4acfff;}.cls-14,.cls-4{fill:none;}.cls-10,.cls-11,.cls-13,.cls-14,.cls-17,.cls-18,.cls-19,.cls-4,.cls-7,.cls-8,.cls-9{stroke:#191816;}.cls-10,.cls-11,.cls-13,.cls-4,.cls-7,.cls-8,.cls-9{stroke-linecap:round;}.cls-10,.cls-11,.cls-13,.cls-17,.cls-18,.cls-19,.cls-4,.cls-7,.cls-8,.cls-9{stroke-linejoin:round;}.cls-5{fill:#adc4d9;}.cls-6{fill:#c0dceb;}.cls-17,.cls-7{fill:#ff6242;}.cls-18,.cls-8{fill:#ffe500;}.cls-19,.cls-9{fill:#6dd627;}.cls-10{fill:#e0e0e0;}.cls-11{fill:#fff;}.cls-12{fill:#191816;opacity:0.15;}.cls-13{fill:#f0f0f0;}.cls-14{stroke-miterlimit:10;}.cls-15{fill:#dea47a;}.cls-16{fill:#f0c2a1;}</style></defs><title>107- graph-webpage-landing-page</title><g transform="translate(-10.17 -16.17)"><g data-name="New Symbol 53"><circle class="cls-1" cx="50.17" cy="56.17" r="40" style="fill:#e8f4fa"/></g></g><g transform="translate(-10.17 -16.17)"><path class="cls-2" d="m16.53 43.39h48.88v27.43a1.89 1.89 0 01-1.89 1.89h-45.1a1.89 1.89 0 01-1.89-1.89z" style="fill:#00b8f0"/><path class="cls-3" d="m50.45 43.39-27 29.33h-4.6a2.32 2.32 0 01-2.3-2.35v-27z" style="fill:#4acfff"/><path class="cls-4" d="m16.53 43.39h48.88v27.43a1.89 1.89 0 01-1.89 1.89h-45.1a1.89 1.89 0 01-1.89-1.89z" style="fill:none;stroke-linecap:round;stroke-linejoin:round;stroke:#191816"/><path class="cls-5" d="m18.62 36.49h44.7a2.09 2.09 0 012.09 2.09v4.81h-48.88v-4.81a2.09 2.09 0 012.09-2.09z" style="fill:#adc4d9"/><path class="cls-6" d="m63 36.49h-44.07a2.41 2.41 0 00-2.4 2.4v2.88a2.4 2.4 0 012.4-2.4h44.07a2.4 2.4 0 012.41 2.4v-2.88a2.41 2.41 0 00-2.41-2.4z" style="fill:#c0dceb"/><path class="cls-4" d="m18.62 36.49h44.7a2.09 2.09 0 012.09 2.09v4.81h-48.88v-4.81a2.09 2.09 0 012.09-2.09z" style="fill:none;stroke-linecap:round;stroke-linejoin:round;stroke:#191816"/><circle class="cls-7" cx="19.98" cy="39.94" r="1.15" style="fill:#ff6242;stroke-linecap:round;stroke-linejoin:round;stroke:#191816"/><circle class="cls-8" cx="24.58" cy="39.94" r="1.15" style="fill:#ffe500;stroke-linecap:round;stroke-linejoin:round;stroke:#191816"/><circle class="cls-9" cx="29.18" cy="39.94" r="1.15" style="fill:#6dd627;stroke-linecap:round;stroke-linejoin:round;stroke:#191816"/><rect class="cls-10" x="21.13" y="48.57" width="17.82" height="3.45" rx="1" ry="1" style="fill:#e0e0e0;stroke-linecap:round;stroke-linejoin:round;stroke:#191816"/><rect class="cls-10" x="21.13" y="54.89" width="17.82" height="3.45" rx="1" ry="1" style="fill:#e0e0e0;stroke-linecap:round;stroke-linejoin:round;stroke:#191816"/><rect class="cls-11" x="21.13" y="62.37" width="40.25" height="6.9" rx="1" ry="1" style="fill:#fff;stroke-linecap:round;stroke-linejoin:round;stroke:#191816"/><path class="cls-12" d="m63 36.49h-29a22.29 22.29 0 00-.39 4 22 22 0 0031.8 19.72v-21.32a2.41 2.41 0 00-2.41-2.4z" style="fill:#191816;opacity:.15"/><rect class="cls-13" transform="rotate(-45 70.5 54.488)" x="68.11" y="50.32" width="4.77" height="8.35" style="fill:#f0f0f0;stroke-linecap:round;stroke-linejoin:round;stroke:#191816"/><circle class="cls-13" transform="rotate(-34.9 55.742 40.575)" cx="55.74" cy="40.58" r="17.89" style="fill:#f0f0f0;stroke-linecap:round;stroke-linejoin:round;stroke:#191816"/><circle class="cls-2" transform="rotate(-22.5 55.739 40.589)" cx="55.74" cy="40.58" r="14.31" style="fill:#00b8f0"/><path class="cls-3" d="m65.87 30.47a14.312 14.312 0 10-20.24 20.24z" style="fill:#4acfff"/><path class="cls-14" d="m65.86 30.46a14.31 14.31 0 11-20.24 0 14.33 14.33 0 0120.24 0z" style="fill:none;stroke-miterlimit:10;stroke:#191816"/><path class="cls-15" transform="rotate(134.98 79.559 63.553)" d="m79 53.72h1.13a3 3 0 013 3v15.67a1 1 0 01-1 1h-5.13a1 1 0 01-1-1v-15.66a3 3 0 013-3z" style="fill:#dea47a"/><path class="cls-16" d="m74.32 54.88-1.73 1.73 13.9 13.92.11-.1a3.47 3.47 0 000-4.9l-10.6-10.65a1.15 1.15 0 00-1.68 0z" style="fill:#f0c2a1"/><path class="cls-14" transform="rotate(-44.97 79.575 63.556)" d="m77 53.72h5.15a1 1 0 011 1v15.66a3 3 0 01-3 3h-1.15a3 3 0 01-3-3v-15.66a1 1 0 011-1z" style="fill:none;stroke-miterlimit:10;stroke:#191816"/><path class="cls-17" d="m60.81 54a14.59 14.59 0 003.45-1.88v-16.78h-3.45z" style="fill:#ff6242;stroke-linejoin:round;stroke:#191816"/><path class="cls-18" d="m53.91 54.77a13.83 13.83 0 001.83.12 14.39 14.39 0 001.62-.09v-14.28h-3.45z" style="fill:#ffe500;stroke-linejoin:round;stroke:#191816"/><path class="cls-19" d="m47 51.91a14.16 14.16 0 003.45 2v-8.79h-3.45z" style="fill:#6dd627;stroke-linejoin:round;stroke:#191816"/><ellipse class="cls-12" cx="52.18" cy="82.49" rx="27.6" ry="1.73" style="fill:#191816;opacity:.15"/></g></svg>
