<svg version="1.1" viewBox="0 0 88.014 59.996" xmlns="http://www.w3.org/2000/svg"><defs><style>.cls-1,.cls-16{fill:#fff;}.cls-2{fill:#e8f4fa;}.cls-3{fill:none;}.cls-12,.cls-13,.cls-14,.cls-15,.cls-16,.cls-17,.cls-3{stroke:#191816;stroke-linecap:round;stroke-linejoin:round;}.cls-4{fill:#daedf7;}.cls-5{fill:#adc4d9;}.cls-13,.cls-6{fill:#ff6242;}.cls-7{fill:#e04122;}.cls-8{fill:#fff48c;}.cls-12,.cls-9{fill:#ffe500;}.cls-10,.cls-15{fill:#00b8f0;}.cls-11{fill:#4acfff;}.cls-14{fill:#9ceb60;}.cls-17{fill:#6dd627;}</style></defs><title>07- kindergarten</title><path class="cls-1" d="m7.5771 56.496a38.79 38.79 0 001.83 3.5h69.21c.66-1.14 1.28-2.3 1.83-3.5z" style="fill:#fff"/><path class="cls-2" d="m84.017 39.996a40 40 0 10-76.44 16.5h72.87a39.85 39.85 0 003.57-16.5z" style="fill:#e8f4fa"/><line class="cls-3" x1="5.0071" x2="83.007" y1="56.496" y2="56.496" style="fill:none;stroke-linecap:round;stroke-linejoin:round;stroke:#191816"/><line class="cls-3" x1=".50712" x2="3.0071" y1="56.496" y2="56.496" style="fill:none;stroke-linecap:round;stroke-linejoin:round;stroke:#191816"/><line class="cls-3" x1="85.007" x2="87.507" y1="56.496" y2="56.496" style="fill:none;stroke-linecap:round;stroke-linejoin:round;stroke:#191816"/><g transform="translate(-5.9829 -16.004)"><path class="cls-4" d="m75.59 43.55h-56.59a1.17 1.17 0 00-1 .54l-4.72 7.42h67.3l-4-7.35a1.14 1.14 0 00-.99-.61z" style="fill:#daedf7"/><polygon class="cls-5" points="16.08 47.17 13.32 51.51 80.62 51.51 78.25 47.17" style="fill:#adc4d9"/><path class="cls-3" d="m75.59 43.55h-56.59a1.17 1.17 0 00-1 .54l-4.72 7.42h67.3l-4-7.35a1.14 1.14 0 00-.99-.61z" style="fill:none;stroke-linecap:round;stroke-linejoin:round;stroke:#191816"/><path class="cls-6" d="m71.94 72.5h-33.29v-25.43a.73.73 0 01.61-.72l31.85-4.84a.72.72 0 01.83.71z" style="fill:#ff6242"/><path class="cls-7" d="m71.94 72.5h-33.29v-16.75a.72.72 0 01.61-.71l31.85-4.85a.73.73 0 01.83.72z" style="fill:#e04122"/><path class="cls-3" d="m71.94 72.5h-33.29v-25.43a.73.73 0 01.61-.72l31.85-4.84a.72.72 0 01.83.71z" style="fill:none;stroke-linecap:round;stroke-linejoin:round;stroke:#191816"/><path class="cls-8" d="m71.94 51.51h8.88a1.25 1.25 0 011.25 1.25v19.74h-10.13v-21z" style="fill:#fff48c"/><path class="cls-9" d="m71.94 55.86h8.88a1.25 1.25 0 011.25 1.25v15.39h-10.13z" style="fill:#ffe500"/><path class="cls-3" d="m71.94 51.51h8.88a1.25 1.25 0 011.25 1.25v19.74h-10.13v-21z" style="fill:none;stroke-linecap:round;stroke-linejoin:round;stroke:#191816"/><path class="cls-8" d="m13.12 51.51h25.53v21h-26.78v-19.75a1.25 1.25 0 011.25-1.25z" style="fill:#fff48c"/><path class="cls-9" d="m13.12 55.86h25.53v16.64h-26.78v-15.39a1.25 1.25 0 011.25-1.25z" style="fill:#ffe500"/><path class="cls-3" d="m13.12 51.51h25.53v21h-26.78v-19.75a1.25 1.25 0 011.25-1.25z" style="fill:none;stroke-linecap:round;stroke-linejoin:round;stroke:#191816"/><path class="cls-10" d="m42.77 52.24h4.79a.5.5 0 01.5.5v19.76h-5.79v-19.76a.5.5 0 01.5-.5z" style="fill:#00b8f0"/><path class="cls-11" d="m42.27 65.75 5.79-9.65v-3.28a.58.58 0 00-.58-.58h-4.63a.58.58 0 00-.58.58z" style="fill:#4acfff"/><path class="cls-3" d="m42.77 52.24h4.79a.5.5 0 01.5.5v19.76h-5.79v-19.76a.5.5 0 01.5-.5z" style="fill:none;stroke-linecap:round;stroke-linejoin:round;stroke:#191816"/><path class="cls-10" d="m63 52.24h4.79a.5.5 0 01.5.5v19.76h-5.76v-19.76a.5.5 0 01.47-.5z" style="fill:#00b8f0"/><path class="cls-11" d="m62.53 65.75 5.79-9.65v-3.28a.58.58 0 00-.58-.58h-4.63a.58.58 0 00-.58.58z" style="fill:#4acfff"/><path class="cls-3" d="m63 52.24h4.79a.5.5 0 01.5.5v19.76h-5.76v-19.76a.5.5 0 01.47-.5z" style="fill:none;stroke-linecap:round;stroke-linejoin:round;stroke:#191816"/><path class="cls-10" d="m52.9 52.24h4.79a.5.5 0 01.5.5v19.76h-5.79v-19.76a.5.5 0 01.5-.5z" style="fill:#00b8f0"/><path class="cls-11" d="m52.4 65.75 5.79-9.65v-3.28a.58.58 0 00-.58-.58h-4.61a.58.58 0 00-.58.58z" style="fill:#4acfff"/><path class="cls-3" d="m52.9 52.24h4.79a.5.5 0 01.5.5v19.76h-5.79v-19.76a.5.5 0 01.5-.5z" style="fill:none;stroke-linecap:round;stroke-linejoin:round;stroke:#191816"/><path class="cls-12" d="m74.83 60.2a1.44 1.44 0 01-1.44 1.44h-36.19a1.44 1.44 0 01-1.45-1.44v0a1.45 1.45 0 011.45-1.45h36.19a1.45 1.45 0 011.44 1.45z" style="fill:#ffe500;stroke-linecap:round;stroke-linejoin:round;stroke:#191816"/><polygon class="cls-13" points="23.45 72.5 14.77 72.5 19.11 63.82 23.45 63.82" style="fill:#ff6242;stroke-linecap:round;stroke-linejoin:round;stroke:#191816"/><path class="cls-14" d="m23.45 63.82 6.55 5.79h1.71a1.19 1.19 0 011.19 1.19v1.7h-4.38l-5.07-4.34z" style="fill:#9ceb60;stroke-linecap:round;stroke-linejoin:round;stroke:#191816"/><path class="cls-10" d="m30.69 56.43v6.08a.57.57 0 01-.58.58h-2.47a.59.59 0 01-.58-.58v-6.08a.58.58 0 01.58-.57h2.47a.57.57 0 01.58.57z" style="fill:#00b8f0"/><path class="cls-11" d="m27.06 62.51a.55.55 0 00.08.29" style="fill:#4acfff"/><path class="cls-11" d="m30.69 56.43v.47l-3.55 5.9a.55.55 0 01-.08-.29v-6.08a.58.58 0 01.58-.57h2.47a.57.57 0 01.58.57z" style="fill:#4acfff"/><path class="cls-3" d="m30.69 56.43v6.08a.57.57 0 01-.58.58h-2.47a.59.59 0 01-.58-.58v-6.08a.58.58 0 01.58-.57h2.47a.57.57 0 01.58.57z" style="fill:none;stroke-linecap:round;stroke-linejoin:round;stroke:#191816"/><path class="cls-10" d="m19.84 56.43v6.08a.58.58 0 01-.58.58h-2.47a.58.58 0 01-.58-.58v-6.08a.57.57 0 01.58-.57h2.47a.58.58 0 01.58.57z" style="fill:#00b8f0"/><path class="cls-11" d="m19.84 56.43v.47l-3.54 5.9a.48.48 0 01-.09-.29v-6.08a.57.57 0 01.58-.57h2.47a.58.58 0 01.58.57z" style="fill:#4acfff"/><path class="cls-3" d="m19.84 56.43v6.08a.58.58 0 01-.58.58h-2.47a.58.58 0 01-.58-.58v-6.08a.57.57 0 01.58-.57h2.47a.58.58 0 01.58.57z" style="fill:none;stroke-linecap:round;stroke-linejoin:round;stroke:#191816"/><path class="cls-12" d="m20 60.2h2.5a.92.92 0 01.92.92v2.7h-4.31v-2.7a.92.92 0 01.89-.92z" style="fill:#ffe500;stroke-linecap:round;stroke-linejoin:round;stroke:#191816"/><rect class="cls-15" x="52.4" y="66.71" width="2.89" height="5.79" style="fill:#00b8f0;stroke-linecap:round;stroke-linejoin:round;stroke:#191816"/><rect class="cls-15" x="55.29" y="66.71" width="2.89" height="5.79" style="fill:#00b8f0;stroke-linecap:round;stroke-linejoin:round;stroke:#191816"/><line class="cls-3" x1="42.27" x2="48.06" y1="66.71" y2="66.71" style="fill:none;stroke-linecap:round;stroke-linejoin:round;stroke:#191816"/><line class="cls-3" x1="62.53" x2="68.32" y1="66.71" y2="66.71" style="fill:none;stroke-linecap:round;stroke-linejoin:round;stroke:#191816"/><circle class="cls-16" cx="55.29" cy="47.89" r="1.45" style="fill:#fff;stroke-linecap:round;stroke-linejoin:round;stroke:#191816"/><path class="cls-17" d="m89.31 62.54c0 2.87-1 5.35-2.17 5.35s-2.14-2.48-2.14-5.35 2.18-10.39 2.18-10.39 2.13 7.52 2.13 10.39z" style="fill:#6dd627;stroke-linecap:round;stroke-linejoin:round;stroke:#191816"/><line class="cls-3" x1="87.14" x2="87.14" y1="67.89" y2="72.5" style="fill:none;stroke-linecap:round;stroke-linejoin:round;stroke:#191816"/><path class="cls-17" d="m82.07 62.54c0 2.87-1 5.35-2.17 5.35s-2.17-2.48-2.17-5.35 2.17-10.39 2.17-10.39 2.17 7.52 2.17 10.39z" style="fill:#6dd627;stroke-linecap:round;stroke-linejoin:round;stroke:#191816"/><line class="cls-3" x1="79.9" x2="79.9" y1="67.89" y2="72.5" style="fill:none;stroke-linecap:round;stroke-linejoin:round;stroke:#191816"/></g></svg>
