<svg version="1.1" viewBox="0 0 80 80" xmlns="http://www.w3.org/2000/svg"><defs><style>.cls-1{fill:#e8f4fa;}.cls-2{fill:#f0f0f0;}.cls-17,.cls-3{fill:#bdbec0;}.cls-4{fill:none;}.cls-17,.cls-4{stroke:#191816;stroke-linejoin:round;}.cls-5{fill:#4aeff7;}.cls-6{fill:#00dfeb;}.cls-7{fill:#00c9d4;}.cls-8{fill:#fff;}.cls-9{fill:#9ceb60;}.cls-10{fill:#6dd627;}.cls-11{fill:#46b000;}.cls-12{fill:#fff48c;}.cls-13{fill:#ffe500;}.cls-14{fill:#ebcb00;}.cls-15{fill:#ff866e;}.cls-16{fill:#ff6242;}.cls-18{fill:#191816;opacity:0.15;}</style></defs><title>11- pantone</title><g transform="translate(-9.52 -16)"><g data-name="New Symbol 61"><circle class="cls-1" cx="49.52" cy="56" r="40" style="fill:#e8f4fa"/></g></g><g transform="translate(-9.52 -16)"><path class="cls-2" d="m71.59 57.53h-26.17v14.67a2 2 0 01-2 2h28.17a2 2 0 002-2v-12.66a2 2 0 00-2-2.01z" style="fill:#f0f0f0"/><path class="cls-3" d="m72.13 57.62a1.91 1.91 0 00-.54-.09h-26.17v14.67a2 2 0 01-2 2h.77l27.16-15.77a2 2 0 00.78-.81z" style="fill:#bdbec0"/><path class="cls-4" d="m71.59 57.53h-26.17v14.67a2 2 0 01-2 2h28.17a2 2 0 002-2v-12.66a2 2 0 00-2-2.01z" style="fill:none;stroke-linejoin:round;stroke:#191816"/><rect class="cls-5" x="59.22" y="60.98" width="10.35" height="9.77" rx="1.15" ry="1.15" style="fill:#4aeff7"/><path class="cls-6" d="m59.22 62.13v3.35l7.78-4.48h-6.63a1.15 1.15 0 00-1.15 1.13z" style="fill:#00dfeb"/><rect class="cls-4" x="59.22" y="60.98" width="10.35" height="9.77" rx="1.15" ry="1.15" style="fill:none;stroke-linejoin:round;stroke:#191816"/><path class="cls-6" d="m45.42 61v9.78h8.58a1.15 1.15 0 001.15-1.15v-7.5a1.15 1.15 0 00-1.15-1.13z" style="fill:#00dfeb"/><path class="cls-7" d="m55.19 67.82v-5.69a1.15 1.15 0 00-1.19-1.13h-8.58v9.78h4.71z" style="fill:#00c9d4"/><path class="cls-4" d="m45.42 61v9.78h8.58a1.15 1.15 0 001.15-1.15v-7.5a1.15 1.15 0 00-1.15-1.13z" style="fill:none;stroke-linejoin:round;stroke:#191816"/><path class="cls-2" d="m71.35 56.13a2 2 0 00.73-2.74l-6.35-11a2 2 0 00-2.73-.68l-17.58 10.18v19.27z" style="fill:#f0f0f0"/><path class="cls-8" d="m71.35 56.13a2 2 0 00.73-2.74l-6.35-11a2 2 0 00-2.73-.68l-.32.18a2 2 0 01.76.75l7 12.07a2 2 0 010 1.92z" style="fill:#fff"/><path class="cls-3" d="m63 41.71-17.58 10.18v19.27l.9-.52 16.83-29z" style="fill:#bdbec0"/><path class="cls-4" d="m71.35 56.13a2 2 0 00.73-2.74l-6.35-11a2 2 0 00-2.73-.68l-17.58 10.18v19.27z" style="fill:none;stroke-linejoin:round;stroke:#191816"/><rect class="cls-9" transform="rotate(-30.1 60.933 52.515)" x="55.77" y="47.64" width="10.35" height="9.78" rx="1.15" ry="1.15" style="fill:#9ceb60"/><path class="cls-10" d="m54.6 51.89 1.3 2.24 3.78-6.52-4.68 2.7a1.16 1.16 0 00-.4 1.58z" style="fill:#6dd627"/><rect class="cls-4" transform="rotate(-30.1 60.933 52.515)" x="55.77" y="47.64" width="10.35" height="9.78" rx="1.15" ry="1.15" style="fill:none;stroke-linejoin:round;stroke:#191816"/><path class="cls-10" d="m49.54 53.49-4.12 2.39v8.84l.49.84a1.14 1.14 0 001.57.42l7-4a1.14 1.14 0 00.42-1.57l-3.75-6.46a1.14 1.14 0 00-1.61-.46z" style="fill:#6dd627"/><path class="cls-11" d="m49.81 64.63 3.76-6.49-2.46-4.23a1.14 1.14 0 00-1.57-.42l-4.12 2.39v8.84l.49.84a1.14 1.14 0 001.57.42z" style="fill:#46b000"/><path class="cls-4" d="m49.54 53.49-4.12 2.39v8.84l.49.84a1.14 1.14 0 001.57.42l7-4a1.14 1.14 0 00.42-1.57l-3.75-6.46a1.14 1.14 0 00-1.61-.46z" style="fill:none;stroke-linejoin:round;stroke:#191816"/><path class="cls-2" d="m61.79 40.19a2 2 0 00-.73-2.74l-11-6.34a2 2 0 00-2.74.73l-1.94 3.35v33.31z" style="fill:#f0f0f0"/><polygon class="cls-3" points="45.42 68.5 47.14 65.52 47.14 32.21 45.42 35.2" style="fill:#bdbec0"/><path class="cls-8" d="m49 32.8 12 6.91a2 2 0 01.72.71l.13-.23a2 2 0 00-.73-2.74l-11-6.34a2 2 0 00-2.74.73l-.69 1.16a2 2 0 012.31-.2z" style="fill:#fff"/><polygon class="cls-8" points="46.19 67.16 45.42 68.39 45.42 68.5" style="fill:#fff"/><path class="cls-4" d="m61.79 40.19a2 2 0 00-.73-2.74l-11-6.34a2 2 0 00-2.74.73l-1.94 3.35v33.31z" style="fill:none;stroke-linejoin:round;stroke:#191816"/><path class="cls-12" d="m45.42 42.08v2.92l6.2 3.58a1.15 1.15 0 001.57-.42l4-7a1.14 1.14 0 00-.42-1.57l-6.47-3.75a1.15 1.15 0 00-1.57.42z" style="fill:#fff48c"/><polygon class="cls-13" points="45.42 45.01 47.14 46.01 47.14 39.1 45.42 42.09" style="fill:#ffe500"/><polygon class="cls-13" points="45.42 43.73 47.14 43.27 47.14 39.1 45.42 42.09" style="fill:#ffe500"/><path class="cls-13" d="m45.42 61.61 4.6-8a1.15 1.15 0 00-.42-1.57l-4.18-2.42z" style="fill:#ffe500"/><polygon class="cls-14" points="45.42 61.61 47.14 58.63 47.14 50.66 45.42 49.66" style="fill:#ebcb00"/><polygon class="cls-14" points="45.42 54.25 47.14 53.79 47.14 50.66 45.42 49.66" style="fill:#ebcb00"/><path class="cls-4" d="m45.42 61.61 4.6-8a1.15 1.15 0 00-.42-1.57l-4.18-2.42z" style="fill:none;stroke-linejoin:round;stroke:#191816"/><path class="cls-4" d="m45.42 42.08v2.92l6.2 3.58a1.15 1.15 0 001.57-.42l4-7a1.14 1.14 0 00-.42-1.57l-6.47-3.75a1.15 1.15 0 00-1.57.42z" style="fill:none;stroke-linejoin:round;stroke:#191816"/><rect class="cls-2" x="28.74" y="29.36" width="16.68" height="44.85" rx="2" ry="2" style="fill:#f0f0f0"/><path class="cls-8" d="m43.41 29.36h-12.66a2 2 0 00-2 2v1.73a2 2 0 012-2h12.66a2 2 0 012 2v-1.73a2 2 0 00-2-2z" style="fill:#fff"/><rect class="cls-4" x="28.74" y="29.36" width="16.68" height="44.85" rx="2" ry="2" style="fill:none;stroke-linejoin:round;stroke:#191816"/><rect class="cls-15" x="32.19" y="33.38" width="9.77" height="10.35" rx="1.15" ry="1.15" style="fill:#ff866e"/><rect class="cls-4" x="32.19" y="33.38" width="9.77" height="10.35" rx="1.15" ry="1.15" style="fill:none;stroke-linejoin:round;stroke:#191816"/><rect class="cls-16" x="32.19" y="47.76" width="9.77" height="10.35" rx="1.15" ry="1.15" style="fill:#ff6242"/><rect class="cls-4" x="32.19" y="47.76" width="9.77" height="10.35" rx="1.15" ry="1.15" style="fill:none;stroke-linejoin:round;stroke:#191816"/><circle class="cls-17" cx="37.08" cy="68.46" r="1.72" style="fill:#bdbec0;stroke-linejoin:round;stroke:#191816"/><ellipse class="cls-18" cx="51.17" cy="81.58" rx="23" ry="1.72" style="fill:#191816;opacity:.15"/></g></svg>
