<svg version="1.1" viewBox="0 0 88.014 79.996" xmlns="http://www.w3.org/2000/svg"><defs><style>.cls-1,.cls-16,.cls-4{fill:none;}.cls-2,.cls-21{fill:#fff;}.cls-3{fill:#e8f4fa;}.cls-10,.cls-11,.cls-19,.cls-20,.cls-21,.cls-24,.cls-27,.cls-4,.cls-5{stroke:#191816;}.cls-10,.cls-11,.cls-16,.cls-19,.cls-20,.cls-21,.cls-24,.cls-27,.cls-4,.cls-5{stroke-linecap:round;stroke-linejoin:round;}.cls-5,.cls-6{fill:#ffcebf;}.cls-7{fill:#ffb59e;}.cls-10,.cls-8{fill:#009fd9;}.cls-9{fill:#00b8f0;}.cls-11{fill:#b89558;}.cls-12{fill:#724f3d;}.cls-13{fill:#a86c4d;}.cls-14{clip-path:url(#clip-path);}.cls-15{fill:#f0f0f0;}.cls-16{stroke:#656769;}.cls-17,.cls-19{fill:#d18660;}.cls-18{fill:#bd704a;}.cls-20{fill:#915e3a;}.cls-22{fill:#ff8a14;}.cls-23{fill:#ffaa54;}.cls-24{fill:#eb6d00;}.cls-25{fill:#ffdf3d;}.cls-26{fill:#ffef9e;}.cls-27{fill:#656769;}.cls-28{fill:#6dd627;}.cls-29{fill:#9ceb60;}</style><clipPath id="clip-path"><circle class="cls-1" cx="50.5" cy="56" r="40" style="fill:none"/></clipPath></defs><title>02- team-teamwork-2</title><g transform="translate(-6.4929 -16.004)"><g data-name="&lt;Group&gt;"><path class="cls-2" d="m50.5 96a39.85 39.85 0 0029.5-13h-59a39.85 39.85 0 0029.5 13z" style="fill:#fff"/><path class="cls-3" d="m90.5 56a40 40 0 10-76.44 16.5 40.44 40.44 0 006.94 10.5h59a40.44 40.44 0 007-10.5 39.85 39.85 0 003.5-16.5z" style="fill:#e8f4fa"/><line class="cls-4" x1="11.5" x2="89.5" y1="83" y2="83" style="fill:none;stroke-linecap:round;stroke-linejoin:round;stroke:#191816"/><line class="cls-4" x1="7" x2="9.5" y1="83" y2="83" style="fill:none;stroke-linecap:round;stroke-linejoin:round;stroke:#191816"/><line class="cls-4" x1="91.5" x2="94" y1="83" y2="83" style="fill:none;stroke-linecap:round;stroke-linejoin:round;stroke:#191816"/></g></g><g transform="translate(-6.4929 -16.004)"><rect class="cls-5" x="59.5" y="72" width="5.5" height="11" style="fill:#ffcebf;stroke-linecap:round;stroke-linejoin:round;stroke:#191816"/><path class="cls-6" d="m54 53.87v-3.42h-7v3.42a15.48 15.48 0 00-12 15.13v3h6v11h18.5v-11h6.5v-3a15.48 15.48 0 00-12-15.13z" style="fill:#ffcebf"/><path class="cls-7" d="m47 53.49a12.26 12.26 0 007 0v-3h-7z" style="fill:#ffb59e"/><path class="cls-4" d="m54 53.87v-3.42h-7v3.42a15.48 15.48 0 00-12 15.13v3h6v11h18.5v-11h6.5v-3a15.48 15.48 0 00-12-15.13z" style="fill:none;stroke-linecap:round;stroke-linejoin:round;stroke:#191816"/><rect class="cls-5" x="36" y="75" width="5" height="8" style="fill:#ffcebf;stroke-linecap:round;stroke-linejoin:round;stroke:#191816"/><path class="cls-8" d="m50.5 60.87v22.13h-9.5v-11h-6v-3-.68a15.47 15.47 0 018.83-13.32l4.17 2.42z" style="fill:#009fd9"/><path class="cls-9" d="m47.71 57.25-3.88-2.25a15.47 15.47 0 00-8.83 13.27v.68 3a15.51 15.51 0 0112.71-14.7z" style="fill:#00b8f0"/><path class="cls-4" d="m50.5 60.87v22.13h-9.5v-11h-6v-3-.68a15.47 15.47 0 018.83-13.32l4.17 2.42z" style="fill:none;stroke-linecap:round;stroke-linejoin:round;stroke:#191816"/><path class="cls-8" d="m66 68.92v3.08h-6.5v11h-9v-22.13l2-3.45 4.66-2.42a15.46 15.46 0 018.84 13.92z" style="fill:#009fd9"/><path class="cls-9" d="m57.16 55-4.22 2.22a15.5 15.5 0 0113.06 14.78v-3.08a15.46 15.46 0 00-8.84-13.92z" style="fill:#00b8f0"/><path class="cls-4" d="m66 68.92v3.08h-6.5v11h-9v-22.13l2-3.45 4.66-2.42a15.46 15.46 0 018.84 13.92z" style="fill:none;stroke-linecap:round;stroke-linejoin:round;stroke:#191816"/><path class="cls-4" d="m59.5 72v-2.4a8.77 8.77 0 011-4.06v0" style="fill:none;stroke-linecap:round;stroke-linejoin:round;stroke:#191816"/><path class="cls-4" d="m41 72v-2.38a8.79 8.79 0 00-1-4.08" style="fill:none;stroke-linecap:round;stroke-linejoin:round;stroke:#191816"/><rect class="cls-10" x="34.5" y="72" width="7" height="3" rx=".5" ry=".5" style="fill:#009fd9;stroke-linecap:round;stroke-linejoin:round;stroke:#191816"/><path class="cls-10" d="m48 57.42-1.55 3.13c-.88 1.77-4-1.07-5.61-3a1 1 0 01.41-1.55l2.58-1z" style="fill:#009fd9;stroke-linecap:round;stroke-linejoin:round;stroke:#191816"/><path class="cls-10" d="m52.5 57.42 2 4 .78-.38a13.6 13.6 0 005.22-4.62v0l-3.3-1.42z" style="fill:#009fd9;stroke-linecap:round;stroke-linejoin:round;stroke:#191816"/><rect class="cls-11" x="41" y="78" width="18.5" height="3" style="fill:#b89558;stroke-linecap:round;stroke-linejoin:round;stroke:#191816"/><path class="cls-12" d="m54 52 4.43 2.49a7 7 0 012.62 9.65 12.39 12.39 0 00-1.32 9.26l.27 1.1-1.82-1.18a12.78 12.78 0 01-5.18-14.65l1-3.22z" style="fill:#724f3d"/><path class="cls-5" d="m60.5 40v-2.5a10 10 0 00-20 0v2.5a2 2 0 000 4h.12a10 10 0 0019.76 0h.12a2 2 0 000-4z" style="fill:#ffcebf;stroke-linecap:round;stroke-linejoin:round;stroke:#191816"/><circle class="cls-7" cx="44.75" cy="44.2" r="1.25" style="fill:#ffb59e"/><circle class="cls-7" cx="56.25" cy="44.2" r="1.25" style="fill:#ffb59e"/><path class="cls-4" d="m47.49 46.74a4.36 4.36 0 006 0" style="fill:none;stroke-linecap:round;stroke-linejoin:round;stroke:#191816"/><path class="cls-4" d="m56 41a1.63 1.63 0 00-3 0" style="fill:none;stroke-linecap:round;stroke-linejoin:round;stroke:#191816"/><path class="cls-4" d="m48 41a1.63 1.63 0 00-3 0" style="fill:none;stroke-linecap:round;stroke-linejoin:round;stroke:#191816"/><path class="cls-13" d="m58 57.22a7.78 7.78 0 013.76 5 7.38 7.38 0 00.24-1.66 7 7 0 00-3.57-6.12l-4.43-2.44v3z" style="fill:#a86c4d"/><path class="cls-4" d="m54 52 4.43 2.49a7 7 0 012.62 9.65 12.39 12.39 0 00-1.32 9.26l.27 1.1-1.82-1.18a12.78 12.78 0 01-5.18-14.65l1-3.22z" style="fill:none;stroke-linecap:round;stroke-linejoin:round;stroke:#191816"/><path class="cls-12" d="m48 26.45a11.35 11.35 0 00-9.5 11.55v4a2 2 0 012-2c0-6 7-8.5 8-8.5h2.5v-5z" style="fill:#724f3d"/><path class="cls-13" d="m50 29h1v-2.55h-3a11.77 11.77 0 00-7.91 5.4 17.78 17.78 0 019.91-2.85z" style="fill:#a86c4d"/><path class="cls-4" d="m48 26.45a11.35 11.35 0 00-9.5 11.55v4a2 2 0 012-2c0-6 7-8.5 8-8.5h2.5v-5z" style="fill:none;stroke-linecap:round;stroke-linejoin:round;stroke:#191816"/><path class="cls-12" d="m49.52 32.2a4.07 4.07 0 01-1.52-3.2c0-8.07 15.5-1.89 15.5 5.4a6.46 6.46 0 01-2.33 5l-.67.6c0-4-8.71-6-10.98-7.8z" style="fill:#724f3d"/><path class="cls-13" d="m50 29c5.76 0 10.77 2.54 13.44 6.3a5.69 5.69 0 00.06-.83c0-7.34-15.5-13.47-15.5-5.47a18.49 18.49 0 012 0z" style="fill:#a86c4d"/><path class="cls-4" d="m49.52 32.2a4.07 4.07 0 01-1.52-3.2v0c0-8.07 15.5-1.89 15.5 5.4a6.46 6.46 0 01-2.33 5l-.67.6c0-4-8.71-6-10.98-7.8z" style="fill:none;stroke-linecap:round;stroke-linejoin:round;stroke:#191816"/><rect class="cls-10" x="59" y="72" width="7.5" height="3" rx=".5" ry=".5" style="fill:#009fd9;stroke-linecap:round;stroke-linejoin:round;stroke:#191816"/><g class="cls-14" clip-path="url(#clip-path)"><path class="cls-15" d="m39 75.5a15.5 15.5 0 00-16.25-15.5c-8.34.41-14.75 7.59-14.75 15.94v2.06h6v5h19v-5h5a1 1 0 001-1z" style="fill:#f0f0f0"/><path class="cls-2" d="m22.75 60c-8.34.41-14.75 7.59-14.75 15.94v2.06h.12a15.72 15.72 0 0114.63-14 15.5 15.5 0 0116.12 13.49 1 1 0 00.13-.49v-1.5a15.5 15.5 0 00-16.25-15.5z" style="fill:#fff"/><line class="cls-16" x1="14" x2="33" y1="81" y2="81" style="fill:none;stroke-linecap:round;stroke-linejoin:round;stroke:#656769"/><line class="cls-16" x1="8" x2="38" y1="78" y2="78" style="fill:none;stroke-linecap:round;stroke-linejoin:round;stroke:#656769"/><line class="cls-16" x1="8.03" x2="39" y1="75" y2="75" style="fill:none;stroke-linecap:round;stroke-linejoin:round;stroke:#656769"/><line class="cls-16" x1="8.49" x2="38.6" y1="72" y2="72" style="fill:none;stroke-linecap:round;stroke-linejoin:round;stroke:#656769"/><line class="cls-16" x1="9.56" x2="37.58" y1="69" y2="69" style="fill:none;stroke-linecap:round;stroke-linejoin:round;stroke:#656769"/><line class="cls-16" x1="11.4" x2="35.75" y1="66" y2="66" style="fill:none;stroke-linecap:round;stroke-linejoin:round;stroke:#656769"/><line class="cls-16" x1="14.46" x2="32.66" y1="63" y2="63" style="fill:none;stroke-linecap:round;stroke-linejoin:round;stroke:#656769"/><path class="cls-4" d="m39 75.5a15.5 15.5 0 00-16.25-15.5c-8.34.41-14.75 7.59-14.75 15.94v2.06h6v5h19v-5h5a1 1 0 001-1z" style="fill:none;stroke-linecap:round;stroke-linejoin:round;stroke:#191816"/><line class="cls-4" x1="14" x2="14" y1="74" y2="83" style="fill:none;stroke-linecap:round;stroke-linejoin:round;stroke:#191816"/><line class="cls-4" x1="33" x2="33" y1="74" y2="78" style="fill:none;stroke-linecap:round;stroke-linejoin:round;stroke:#191816"/><path class="cls-17" d="m20 60.5a3.5 3.5 0 007 0v-3.5h-7z" style="fill:#d18660"/><path class="cls-18" d="m20 60.49a12.26 12.26 0 007 0v-3.49h-7z" style="fill:#bd704a"/><path class="cls-4" d="m23.5 64a3.5 3.5 0 01-3.5-3.5v-3.5h7v3.5a3.5 3.5 0 01-3.5 3.5z" style="fill:none;stroke-linecap:round;stroke-linejoin:round;stroke:#191816"/><rect class="cls-19" x="9" y="78" width="5" height="5" style="fill:#d18660;stroke-linecap:round;stroke-linejoin:round;stroke:#191816"/><rect class="cls-19" x="33" y="78" width="5" height="5" style="fill:#d18660;stroke-linecap:round;stroke-linejoin:round;stroke:#191816"/><path class="cls-20" d="m14 82v1h5c3.54-2.84 12.35-13.5 14.92-18.61a1 1 0 00-.24-1.21 16.27 16.27 0 00-2.6-1.76 1 1 0 00-1.45.56c-1.33 4.41-5.83 12.26-15.63 20.02z" style="fill:#915e3a;stroke-linecap:round;stroke-linejoin:round;stroke:#191816"/><path class="cls-21" d="m93 75.5a15.5 15.5 0 00-31 0v7.5h31z" style="fill:#fff;stroke-linecap:round;stroke-linejoin:round;stroke:#191816"/><path class="cls-6" d="m74 63.5a3.5 3.5 0 007 0v-9h-7z" style="fill:#ffcebf"/><path class="cls-7" d="m81 54.5v6.39a10.07 10.07 0 01-3.48.61 10.26 10.26 0 01-3.52-.62v-6.38z" style="fill:#ffb59e"/><path class="cls-4" d="m74 63.5a3.5 3.5 0 007 0v-9h-7z" style="fill:none;stroke-linecap:round;stroke-linejoin:round;stroke:#191816"/><path class="cls-21" d="m74 59.5 3.5 7.5-4.5 1.65a1 1 0 01-1.32-.65l-2.18-6.5z" style="fill:#fff;stroke-linecap:round;stroke-linejoin:round;stroke:#191816"/><path class="cls-21" d="m81 59.5-3.5 7.5 4.5 1.65a1 1 0 001.32-.65l2.18-6.5z" style="fill:#fff;stroke-linecap:round;stroke-linejoin:round;stroke:#191816"/><line class="cls-21" x1="77.5" x2="77.5" y1="67" y2="83" style="fill:#fff;stroke-linecap:round;stroke-linejoin:round;stroke:#191816"/><path class="cls-22" d="m74 80.5v2.5h-12v-7.5a15.48 15.48 0 019.75-14.39z" style="fill:#ff8a14"/><path class="cls-23" d="m72.14 64.45-.39-3.34a15.48 15.48 0 00-9.75 14.39v3.5a15.5 15.5 0 0110.14-14.55z" style="fill:#ffaa54"/><path class="cls-4" d="m74 80.5v2.5h-12v-7.5a15.48 15.48 0 019.75-14.39z" style="fill:none;stroke-linecap:round;stroke-linejoin:round;stroke:#191816"/><path class="cls-22" d="m93 75.5v7.5h-12v-2.5l2.25-19.39a15.48 15.48 0 019.75 14.39z" style="fill:#ff8a14"/><path class="cls-23" d="m82.86 64.45.39-3.34a15.48 15.48 0 019.75 14.39v3.5a15.5 15.5 0 00-10.14-14.55z" style="fill:#ffaa54"/><path class="cls-22" d="m93 75.5v7.5h-12v-2.5l2.25-19.39a15.48 15.48 0 019.75 14.39z" style="fill:#ff8a14"/><path class="cls-23" d="m82.86 64.45.39-3.34a15.48 15.48 0 019.75 14.39v3.5a15.5 15.5 0 00-10.14-14.55z" style="fill:#ffaa54"/><path class="cls-4" d="m93 75.5v7.5h-12v-2.5l2.25-19.39a15.48 15.48 0 019.75 14.39z" style="fill:none;stroke-linecap:round;stroke-linejoin:round;stroke:#191816"/><path class="cls-24" d="m74 59.5-1.13.5a1.48 1.48 0 00-.87 1.74c.28 1.08.64 2.67 1 4.78a91.76 91.76 0 011 14s-2.5-11-4.5-12.5a8 8 0 01-3-6.5c0-2.43 3.14-4.49 7.5-5.21z" style="fill:#eb6d00;stroke-linecap:round;stroke-linejoin:round;stroke:#191816"/><path class="cls-24" d="m81 59.5 1.13.5a1.48 1.48 0 01.87 1.74c-.28 1.08-.64 2.67-1 4.78a91.76 91.76 0 00-1 14s2.5-11 4.5-12.5a8 8 0 003-6.5c0-2.43-3.14-4.49-7.5-5.21z" style="fill:#eb6d00;stroke-linecap:round;stroke-linejoin:round;stroke:#191816"/><line class="cls-4" x1="68" x2="68" y1="74.5" y2="83" style="fill:none;stroke-linecap:round;stroke-linejoin:round;stroke:#191816"/><line class="cls-4" x1="87" x2="87" y1="74.5" y2="83" style="fill:none;stroke-linecap:round;stroke-linejoin:round;stroke:#191816"/></g><path class="cls-5" d="m87.76 46.37v-2.37a10.23 10.23 0 00-20.46 0v2.4a1.81 1.81 0 00-1.8 1.81v.6a1.81 1.81 0 001.8 1.81h.17a10.22 10.22 0 0020.13 0h.16a1.81 1.81 0 001.81-1.81v-.6a1.81 1.81 0 00-1.81-1.84z" style="fill:#ffcebf;stroke-linecap:round;stroke-linejoin:round;stroke:#191816"/><path class="cls-7" d="m84.75 50.59a1.2 1.2 0 11-1.2-1.21 1.2 1.2 0 011.2 1.21z" style="fill:#ffb59e"/><path class="cls-7" d="m72.72 50.59a1.21 1.21 0 11-1.2-1.21 1.2 1.2 0 011.2 1.21z" style="fill:#ffb59e"/><path class="cls-4" d="m83 47.38a1.63 1.63 0 00-3 0" style="fill:none;stroke-linecap:round;stroke-linejoin:round;stroke:#191816"/><path class="cls-4" d="m75 47.38a1.63 1.63 0 00-3 0" style="fill:none;stroke-linecap:round;stroke-linejoin:round;stroke:#191816"/><path class="cls-4" d="m74.48 53a4.38 4.38 0 006 0" style="fill:none;stroke-linecap:round;stroke-linejoin:round;stroke:#191816"/><path class="cls-25" d="m76.33 31.91c-7.22 0-10.23 5.27-10.33 10.22v4.22c3.11 0 3.11-3.61 3.11-3.61s7.22 1.2 12-2.41c0 0 3 6 7.86 6v-4.2c0-6.05-1.31-8.42-7.25-8.42.03 0-.58-1.8-5.39-1.8z" style="fill:#ffdf3d"/><path class="cls-26" d="m81.75 33.71s-.61-1.8-5.42-1.8c-7.22 0-10.23 5.27-10.33 10.22v3.16c.1-5 3.11-10.23 10.33-10.23 4.81 0 5.42 1.8 5.42 1.8 5.94 0 7.22 2.38 7.25 8.43v-3.16c0-6.05-1.31-8.42-7.25-8.42z" style="fill:#ffef9e"/><path class="cls-4" d="m76.33 31.91c-7.22 0-10.23 5.27-10.33 10.22v4.22c3.11 0 3.11-3.61 3.11-3.61s7.22 1.2 12-2.41c0 0 3 6 7.86 6v-4.2c0-6.05-1.31-8.42-7.25-8.42.03 0-.58-1.8-5.39-1.8z" style="fill:none;stroke-linecap:round;stroke-linejoin:round;stroke:#191816"/><path class="cls-4" d="m74.18 50h-3.26a2.47 2.47 0 01-2.41-2.45v-2a1 1 0 011-1h6.08a1.2 1.2 0 011.19 1.34l-.21 1.94a2.49 2.49 0 01-2.39 2.17z" style="fill:none;stroke-linecap:round;stroke-linejoin:round;stroke:#191816"/><path class="cls-4" d="m80.89 50h3.26a2.38 2.38 0 002.35-2.45v-2a.92.92 0 00-.94-1h-6.08a1.2 1.2 0 00-1.2 1.34l.22 1.94a2.47 2.47 0 002.39 2.17z" style="fill:none;stroke-linecap:round;stroke-linejoin:round;stroke:#191816"/><line class="cls-4" x1="76.73" x2="78.34" y1="46.35" y2="46.35" style="fill:none;stroke-linecap:round;stroke-linejoin:round;stroke:#191816"/><polygon class="cls-27" points="12 45 10.5 44.5 12 42.5 13.5 42.5 13.5 47.5 12 47.5 10.5 47" style="fill:#656769;stroke-linecap:round;stroke-linejoin:round;stroke:#191816"/><polygon class="cls-27" points="35 45 36.5 44.5 35 42.5 33.5 42.5 33.5 47.5 35 47.5 36.5 47" style="fill:#656769;stroke-linecap:round;stroke-linejoin:round;stroke:#191816"/><path class="cls-17" d="m33.5 46.5v-2.5a10 10 0 00-20 0v2.5a2 2 0 000 4h.12a10 10 0 0019.76 0h.12a2 2 0 000-4z" style="fill:#d18660"/><path class="cls-4" d="m33.5 46.5v-2.5a10 10 0 00-20 0v2.5a2 2 0 000 4h.12a10 10 0 0019.76 0h.12a2 2 0 000-4z" style="fill:none;stroke-linecap:round;stroke-linejoin:round;stroke:#191816"/><circle class="cls-18" cx="17.75" cy="50.75" r="1.25" style="fill:#bd704a"/><circle class="cls-18" cx="29.25" cy="50.75" r="1.25" style="fill:#bd704a"/><path class="cls-4" d="m20.49 53.29a4.38 4.38 0 006 0" style="fill:none;stroke-linecap:round;stroke-linejoin:round;stroke:#191816"/><path class="cls-4" d="m29 47.5a1.63 1.63 0 00-3 0" style="fill:none;stroke-linecap:round;stroke-linejoin:round;stroke:#191816"/><path class="cls-4" d="m21 47.5a1.63 1.63 0 00-3 0" style="fill:none;stroke-linecap:round;stroke-linejoin:round;stroke:#191816"/><path class="cls-28" d="m20.42 31h6.15a8.42 8.42 0 018.43 8.42v3.08h-23v-3.08a8.42 8.42 0 018.42-8.42z" style="fill:#6dd627"/><path class="cls-29" d="m35 39.42a8.42 8.42 0 00-8.42-8.42h-6.16a8.42 8.42 0 00-8.42 8.42v2.5a8.42 8.42 0 018.42-8.42h6.16a8.42 8.42 0 018.42 8.42z" style="fill:#9ceb60"/><path class="cls-4" d="m20.42 31h6.15a8.42 8.42 0 018.43 8.42v3.08h-23v-3.08a8.42 8.42 0 018.42-8.42z" style="fill:none;stroke-linecap:round;stroke-linejoin:round;stroke:#191816"/><path class="cls-27" d="m23.5 37v0a2.5 2.5 0 00-2.5 2.5.5.5 0 00.5.5h4.5v-.5a2.5 2.5 0 00-2.5-2.5z" style="fill:#656769;stroke-linecap:round;stroke-linejoin:round;stroke:#191816"/><path class="cls-4" d="m26 40h.25a1.25 1.25 0 011.25 1.25v0a1.25 1.25 0 01-1.25 1.25h-.25" style="fill:none;stroke-linecap:round;stroke-linejoin:round;stroke:#191816"/><path class="cls-27" d="m25.3 57.4a1 1 0 00-.8-.4h-2a1 1 0 00-.8.4l-.78 1a.49.49 0 00-.08.45.5.5 0 00.32.33l.84.28 1.1 1.54a.5.5 0 00.8 0l1.1-1.5.84-.28a.5.5 0 00.32-.33.49.49 0 00-.08-.45z" style="fill:#656769;stroke-linecap:round;stroke-linejoin:round;stroke:#191816"/></g></svg>
