<svg version="1.1" viewBox="0 0 88.014 79.996" xmlns="http://www.w3.org/2000/svg"><defs><style>.cls-1{fill:#fff;}.cls-2{fill:#e8f4fa;}.cls-3{fill:none;}.cls-10,.cls-11,.cls-12,.cls-3,.cls-8,.cls-9{stroke:#191816;stroke-linecap:round;stroke-linejoin:round;}.cls-4{fill:#e0e0e0;}.cls-5{fill:#bdbec0;}.cls-6{fill:#191816;opacity:0.15;}.cls-7{fill:#f0f0f0;}.cls-8{fill:#adc4d9;}.cls-9{fill:#009fd9;}.cls-10{fill:#ffe500;}.cls-11{fill:#6dd627;}.cls-12{fill:#ff6242;}.cls-13{fill:#8ca4b8;}.cls-14{fill:#627b8c;}</style></defs><title>23 business-plan-strategy</title><g transform="translate(-5.9929 -16.004)" data-name="New Symbol 9"><path class="cls-1" d="m50 96a39.94 39.94 0 0034.61-20h-69.22a39.94 39.94 0 0034.61 20z" style="fill:#fff"/><path class="cls-1" d="m13.56 72.5c.55 1.2 1.17 2.36 1.83 3.5h69.22c.66-1.14 1.28-2.3 1.83-3.5z" style="fill:#fff"/><path class="cls-2" d="m90 56a40 40 0 10-76.44 16.5h72.88a39.85 39.85 0 003.56-16.5z" style="fill:#e8f4fa"/><line class="cls-3" x1="11" x2="89" y1="72.5" y2="72.5" style="fill:none;stroke-linecap:round;stroke-linejoin:round;stroke:#191816"/><line class="cls-3" x1="6.5" x2="9" y1="72.5" y2="72.5" style="fill:none;stroke-linecap:round;stroke-linejoin:round;stroke:#191816"/><line class="cls-3" x1="91" x2="93.5" y1="72.5" y2="72.5" style="fill:none;stroke-linecap:round;stroke-linejoin:round;stroke:#191816"/></g><path class="cls-4" d="m44.277 51.656-1.87 4h-3.07l2.45-5.3a1.3931 1.3931 0 112.49 1.25z" style="fill:#e0e0e0"/><path class="cls-4" d="m41.787 50.406a1.3908 1.3908 0 012.49 1.24l-6.2 13.42a1.3908 1.3908 0 01-2.49-1.24z" style="fill:#e0e0e0"/><path class="cls-5" d="m44.277 51.656-1.87 4h-3.07l2.45-5.3a1.3931 1.3931 0 112.49 1.25z" style="fill:#bdbec0"/><path class="cls-3" d="m41.787 50.406a1.3908 1.3908 0 012.49 1.24l-6.2 13.42a1.3908 1.3908 0 01-2.49-1.24z" style="fill:none;stroke-linecap:round;stroke-linejoin:round;stroke:#191816"/><path class="cls-4" d="m44.597 51.656 1.88 4h3.06l-2.45-5.3a1.4 1.4 0 00-1.86-.62 1.41 1.41 0 00-.63 1.92z" style="fill:#e0e0e0"/><path class="cls-4" d="m47.087 50.406a1.39 1.39 0 00-1.86-.62 1.38 1.38 0 00-.62 1.86l6.2 13.42a1.39 1.39 0 102.48-1.24z" style="fill:#e0e0e0"/><path class="cls-5" d="m44.597 51.656 1.88 4h3.06l-2.45-5.3a1.4 1.4 0 00-1.86-.62 1.41 1.41 0 00-.63 1.92z" style="fill:#bdbec0"/><path class="cls-3" d="m47.087 50.406a1.39 1.39 0 00-1.86-.62 1.38 1.38 0 00-.62 1.86l6.2 13.42a1.39 1.39 0 102.48-1.24z" style="fill:none;stroke-linecap:round;stroke-linejoin:round;stroke:#191816"/><ellipse class="cls-6" cx="44.467" cy="66.416" rx="15.96" ry="1.74" style="fill:#191816;opacity:.15"/><rect class="cls-7" x="25.727" y="17.716" width="37.48" height="29.15" style="fill:#f0f0f0"/><rect class="cls-4" x="25.727" y="17.716" width="37.48" height="2.78" style="fill:#e0e0e0"/><rect class="cls-3" x="25.727" y="17.716" width="37.48" height="29.15" style="fill:none;stroke-linecap:round;stroke-linejoin:round;stroke:#191816"/><rect class="cls-8" x="23.417" y="46.866" width="42.1" height="2.78" style="fill:#adc4d9;stroke-linecap:round;stroke-linejoin:round;stroke:#191816"/><path class="cls-9" d="m69.647 48.606a2.15 2.15 0 01-2.16 1.73h-1.39a.58.58 0 01-.58-.58v-3a.58.58 0 01.58-.58h1.5a2.08 2.08 0 012.05 2.43z" style="fill:#009fd9;stroke-linecap:round;stroke-linejoin:round;stroke:#191816"/><path class="cls-9" d="m19.277 48.606a2.17 2.17 0 002.17 1.73h1.39a.58.58 0 00.58-.58v-3a.58.58 0 00-.58-.58h-1.51a2.09 2.09 0 00-2.05 2.43z" style="fill:#009fd9;stroke-linecap:round;stroke-linejoin:round;stroke:#191816"/><rect class="cls-8" x="23.417" y="14.936" width="42.1" height="2.78" style="fill:#adc4d9;stroke-linecap:round;stroke-linejoin:round;stroke:#191816"/><path class="cls-9" d="m69.647 16.676a2.14 2.14 0 01-2.16 1.73h-1.39a.57.57 0 01-.58-.57v-3a.58.58 0 01.58-.58h1.5a2.08 2.08 0 012.05 2.42z" style="fill:#009fd9;stroke-linecap:round;stroke-linejoin:round;stroke:#191816"/><path class="cls-9" d="m19.277 16.676a2.16 2.16 0 002.17 1.73h1.39a.57.57 0 00.58-.57v-3a.58.58 0 00-.58-.58h-1.51a2.09 2.09 0 00-2.05 2.42z" style="fill:#009fd9;stroke-linecap:round;stroke-linejoin:round;stroke:#191816"/><polyline class="cls-3" transform="translate(-5.9929 -16.004)" points="31.02 30.94 50.46 25.39 69.89 30.94" style="fill:none;stroke-linecap:round;stroke-linejoin:round;stroke:#191816"/><line class="cls-3" x1="44.467" x2="44.467" y1="7.9963" y2="14.936" style="fill:none;stroke-linecap:round;stroke-linejoin:round;stroke:#191816"/><circle class="cls-10" cx="44.467" cy="23.966" r="2.78" style="fill:#ffe500;stroke-linecap:round;stroke-linejoin:round;stroke:#191816"/><path class="cls-11" d="m40.577 37.146-2.21-5.15-5.7 2.24 2.05.82a27.51 27.51 0 00-2.71 11.81h4.74a22.74 22.74 0 011.75-10.53z" style="fill:#6dd627;stroke-linecap:round;stroke-linejoin:round;stroke:#191816"/><path class="cls-12" d="m45.157 34.936 2.56-6.81 7.66 2.56-3.37 1.31s4.18 7.18 4.18 14.85h-6s.85-7.67-1.67-13.25z" style="fill:#ff6242;stroke-linecap:round;stroke-linejoin:round;stroke:#191816"/><line class="cls-3" x1="41.687" x2="45.857" y1="39.226" y2="43.396" style="fill:none;stroke-linecap:round;stroke-linejoin:round;stroke:#191816"/><line class="cls-3" x1="45.857" x2="41.687" y1="39.226" y2="43.396" style="fill:none;stroke-linecap:round;stroke-linejoin:round;stroke:#191816"/><line class="cls-3" x1="56.267" x2="60.427" y1="24.656" y2="28.816" style="fill:none;stroke-linecap:round;stroke-linejoin:round;stroke:#191816"/><line class="cls-3" x1="60.427" x2="56.267" y1="24.656" y2="28.816" style="fill:none;stroke-linecap:round;stroke-linejoin:round;stroke:#191816"/><line class="cls-3" x1="29.887" x2="34.057" y1="24.656" y2="28.816" style="fill:none;stroke-linecap:round;stroke-linejoin:round;stroke:#191816"/><line class="cls-3" x1="34.057" x2="29.887" y1="24.656" y2="28.816" style="fill:none;stroke-linecap:round;stroke-linejoin:round;stroke:#191816"/><rect class="cls-13" x="40.297" y="49.636" width="8.33" height="3.47" style="fill:#8ca4b8"/><rect class="cls-14" x="40.297" y="49.636" width="8.33" height="1.43" style="fill:#627b8c"/><rect class="cls-3" x="40.297" y="49.636" width="8.33" height="3.47" style="fill:none;stroke-linecap:round;stroke-linejoin:round;stroke:#191816"/><path class="cls-4" d="m45.857 53.106h-2.78v11.34a1.39 1.39 0 102.78 0z" style="fill:#e0e0e0"/><rect class="cls-5" x="43.077" y="53.106" width="2.78" height="2.59" style="fill:#bdbec0"/><path class="cls-3" d="m45.857 53.106h-2.78v11.34a1.39 1.39 0 102.78 0z" style="fill:none;stroke-linecap:round;stroke-linejoin:round;stroke:#191816"/></svg>
