<svg version="1.1" viewBox="0 0 80 80" xmlns="http://www.w3.org/2000/svg"><defs><style>.cls-1{fill:#e8f4fa;}.cls-2{fill:#bf8256;}.cls-3{fill:#dea47a;}.cls-4{fill:none;}.cls-10,.cls-4,.cls-8,.cls-9{stroke:#191816;stroke-linecap:round;stroke-linejoin:round;}.cls-5{fill:#fff5e3;}.cls-6{fill:#bdbec0;}.cls-7{fill:#e0e0e0;}.cls-8{fill:#fff;}.cls-9{fill:#ff6242;}.cls-10{fill:#debb7e;}.cls-11{fill:#191816;opacity:0.15;}</style></defs><title>20- business-target-checklist</title><g transform="translate(-10,-16)" data-name="New Symbol 53"><circle class="cls-1" cx="50" cy="56" r="40" style="fill:#e8f4fa"/></g><rect class="cls-2" transform="rotate(-8.6156)" x="8.6543" y="24.073" width="29.849" height="37.629" rx="2.0026" ry="2.0026" style="fill:#bf8256;stroke-width:1.0013"/><path class="cls-3" d="m39.7 18.13-25.5 3.94a2 2 0 00-1.68 2.28l.46 3a2 2 0 011.67-2.35l25.51-3.9a2 2 0 012.28 1.67l-.46-3a2 2 0 00-2.28-1.64z" style="fill:#dea47a"/><rect class="cls-4" transform="rotate(-8.6156)" x="8.6543" y="24.073" width="29.849" height="37.629" rx="2.0026" ry="2.0026" style="fill:none;stroke-linecap:round;stroke-linejoin:round;stroke-width:1.0013;stroke:#191816"/><rect class="cls-5" transform="rotate(-8.78)" x="12.546" y="27.87" width="22.03" height="29.81" style="fill:#fff5e3"/><rect class="cls-4" transform="rotate(-8.78)" x="12.546" y="27.87" width="22.03" height="29.81" style="fill:none;stroke-linecap:round;stroke-linejoin:round;stroke:#191816"/><polyline class="cls-4" transform="translate(-10,-16)" points="35.15 48.2 35.45 50.18 31 50.87 30.32 46.42 32.79 46.04" style="fill:none;stroke-linecap:round;stroke-linejoin:round;stroke:#191816"/><line class="cls-4" x1="27.31" x2="36.21" y1="29.84" y2="28.47" style="fill:none;stroke-linecap:round;stroke-linejoin:round;stroke:#191816"/><line class="cls-4" x1="27.69" x2="33.62" y1="32.31" y2="31.4" style="fill:none;stroke-linecap:round;stroke-linejoin:round;stroke:#191816"/><line class="cls-4" x1="28.61" x2="37.5" y1="38.24" y2="36.87" style="fill:none;stroke-linecap:round;stroke-linejoin:round;stroke:#191816"/><line class="cls-4" x1="28.99" x2="34.92" y1="40.71" y2="39.8" style="fill:none;stroke-linecap:round;stroke-linejoin:round;stroke:#191816"/><line class="cls-4" x1="29.83" x2="38.72" y1="46.15" y2="44.78" style="fill:none;stroke-linecap:round;stroke-linejoin:round;stroke:#191816"/><line class="cls-4" x1="30.21" x2="36.14" y1="48.62" y2="47.7" style="fill:none;stroke-linecap:round;stroke-linejoin:round;stroke:#191816"/><polyline class="cls-4" transform="translate(-10,-16)" points="32.03 47.67 33.17 48.51 35.18 45.16" style="fill:none;stroke-linecap:round;stroke-linejoin:round;stroke:#191816"/><polyline class="cls-4" transform="translate(-10,-16)" points="36.37 56.11 36.67 58.08 32.23 58.77 31.54 54.32 34.01 53.94" style="fill:none;stroke-linecap:round;stroke-linejoin:round;stroke:#191816"/><polyline class="cls-4" transform="translate(-10,-16)" points="33.25 55.58 34.39 56.41 36.4 53.07" style="fill:none;stroke-linecap:round;stroke-linejoin:round;stroke:#191816"/><polyline class="cls-4" transform="translate(-10,-16)" points="37.59 64.01 37.89 65.99 33.45 66.68 32.76 62.23 35.23 61.85" style="fill:none;stroke-linecap:round;stroke-linejoin:round;stroke:#191816"/><polyline class="cls-4" transform="translate(-10,-16)" points="34.47 63.48 35.61 64.32 37.62 60.97" style="fill:none;stroke-linecap:round;stroke-linejoin:round;stroke:#191816"/><path class="cls-6" d="m30.35 20.89-.1-.64a3.2438 3.2438 0 00-6.41 1l.1.64-3.84.59.59 3.84 14.09-2.17-.59-3.85z" style="fill:#bdbec0"/><path class="cls-7" d="m26.85 19.46a3.24 3.24 0 013.23 1.47h.27l-.1-.64a3.2438 3.2438 0 00-6.41 1l.1.64.27-.05a3.25 3.25 0 012.64-2.42z" style="fill:#e0e0e0"/><path class="cls-7" d="m23.5 23.26-3.2.49-.2-1.28 4.48-.69a1.3 1.3 0 01-1.08 1.48z" style="fill:#e0e0e0"/><path class="cls-7" d="m34.39 21.57-3.2.5a1.3 1.3 0 01-1.48-1.07l4.48-.7z" style="fill:#e0e0e0"/><path class="cls-4" d="m30.35 20.89-.1-.64a3.2438 3.2438 0 00-6.41 1l.1.64-3.84.59.59 3.84 14.09-2.17-.59-3.85z" style="fill:none;stroke-linecap:round;stroke-linejoin:round;stroke:#191816"/><circle class="cls-8" cx="47" cy="49.5" r="16" style="fill:#fff;stroke-linecap:round;stroke-linejoin:round;stroke:#191816"/><path class="cls-9" d="m47 33.5a16 16 0 1016 16 16 16 0 00-16-16zm0 28.5a12.5 12.5 0 1112.5-12.5 12.5 12.5 0 01-12.5 12.5z" style="fill:#ff6242;stroke-linecap:round;stroke-linejoin:round;stroke:#191816"/><path class="cls-9" d="m47 40a9.5 9.5 0 109.5 9.5 9.5 9.5 0 00-9.5-9.5zm0 15.31a5.81 5.81 0 115.81-5.81 5.81 5.81 0 01-5.81 5.81z" style="fill:#ff6242;stroke-linecap:round;stroke-linejoin:round;stroke:#191816"/><circle class="cls-9" cx="47" cy="49.5" r="3" style="fill:#ff6242;stroke-linecap:round;stroke-linejoin:round;stroke:#191816"/><path class="cls-10" d="m70.92 27.35-22.65 22.65a1.25 1.25 0 01-1.77 0v0a1.25 1.25 0 010-1.77l22.65-22.65a1 1 0 011.43 0l.34.34a1 1 0 010 1.43z" style="fill:#debb7e;stroke-linecap:round;stroke-linejoin:round;stroke:#191816"/><path class="cls-9" d="m62.79 31.94v-3.83a1 1 0 01.3-.71l4.25-4.25a.5.5 0 01.85.31l.26 2.82z" style="fill:#ff6242;stroke-linecap:round;stroke-linejoin:round;stroke:#191816"/><path class="cls-9" d="m64.56 33.71h3.83a1 1 0 00.71-.3l4.25-4.25a.5.5 0 00-.31-.85l-2.82-.26z" style="fill:#ff6242;stroke-linecap:round;stroke-linejoin:round;stroke:#191816"/><ellipse class="cls-11" cx="46.75" cy="66.75" rx="17" ry="1.5" style="fill:#191816;opacity:.15"/></svg>
