<svg id="Multicolor" xmlns="http://www.w3.org/2000/svg" viewBox="0 0 178 178"><defs><style>.cls-1,.cls-8{fill:#e8f4fa;}.cls-11,.cls-2{fill:#191816;}.cls-2{opacity:0.15;}.cls-3{fill:#c0dceb;}.cls-12,.cls-13,.cls-14,.cls-15,.cls-16,.cls-18,.cls-3,.cls-6,.cls-7,.cls-8{stroke:#191816;stroke-linecap:round;stroke-linejoin:round;}.cls-16,.cls-4{fill:#00b8f0;}.cls-5{fill:#4acfff;}.cls-6{fill:none;}.cls-19,.cls-7{fill:#656769;}.cls-9{fill:#e0e0e0;}.cls-10{fill:#f0f0f0;}.cls-12{fill:#fff5e3;}.cls-13,.cls-22{fill:#ff6242;}.cls-14{fill:#ff8a14;}.cls-15{fill:#6dd627;}.cls-17{fill:#ffe500;}.cls-18{fill:#f7e5c6;}.cls-20{fill:#87898c;}.cls-21{fill:#fff48c;}.cls-23{fill:#ff866e;}</style></defs><title>95- desktop-laptop-studying-pen</title><g id="Background"><g id="New_Symbol_36-13" data-name="New Symbol 36"><circle class="cls-1" cx="89" cy="88.8" r="81"/></g></g><g id="Scene"><path class="cls-2" d="M94.31,42.92h29.92A4.72,4.72,0,0,1,129,47.64V94.89a4.72,4.72,0,0,1-4.72,4.72H94.31a4.73,4.73,0,0,1-4.73-4.73V47.64A4.73,4.73,0,0,1,94.31,42.92Z" transform="translate(21.48 167.77) rotate(-80.82)"/><path class="cls-3" d="M144.75,30.39l-58.5-9.46a3.94,3.94,0,0,0-4.52,3.26h0L148,34.9h0A3.93,3.93,0,0,0,144.75,30.39Z"/><path class="cls-4" d="M135.64,54.44,87.31,46.63A3.16,3.16,0,0,1,84.7,44l-3-19.56a.78.78,0,0,1,.91-.89L147.36,34a.79.79,0,0,1,.58,1.13l-9,17.63A3.15,3.15,0,0,1,135.64,54.44Z"/><path class="cls-5" d="M87.31,46.63,95.93,48l25.29-18.25L82.64,23.54a.78.78,0,0,0-.91.89L84.7,44A3.16,3.16,0,0,0,87.31,46.63Z"/><path class="cls-6" d="M135.64,54.44,87.31,46.63A3.16,3.16,0,0,1,84.7,44l-3-19.56a.78.78,0,0,1,.91-.89L147.36,34a.79.79,0,0,1,.58,1.13l-9,17.63A3.15,3.15,0,0,1,135.64,54.44Z"/><path class="cls-3" d="M94.54,40.08h28.35a4.73,4.73,0,0,1,4.73,4.73V90.48a4.72,4.72,0,0,1-4.72,4.72H94.54a4.73,4.73,0,0,1-4.73-4.73V44.8A4.73,4.73,0,0,1,94.54,40.08Z" transform="translate(24.59 164.16) rotate(-80.82)"/><rect class="cls-7" x="109.9" y="29.27" width="3.15" height="42.53" transform="translate(43.8 152.52) rotate(-80.82)"/><rect class="cls-6" x="108.08" y="30.83" width="6.3" height="42.53" transform="translate(42.05 153.58) rotate(-80.82)"/><rect class="cls-8" x="102.92" y="43.27" width="12.6" height="42.52" rx="1.58" ry="1.58" transform="translate(28.08 162.04) rotate(-80.82)"/><line class="cls-6" x1="91.61" y1="64.87" x2="94.72" y2="65.38"/><line class="cls-6" x1="97.83" y1="65.88" x2="119.6" y2="69.4"/><line class="cls-6" x1="122.71" y1="69.9" x2="125.82" y2="70.4"/><line class="cls-6" x1="92.11" y1="61.76" x2="95.22" y2="62.27"/><line class="cls-6" x1="98.33" y1="62.77" x2="101.44" y2="63.27"/><line class="cls-6" x1="104.55" y1="63.77" x2="107.66" y2="64.28"/><line class="cls-6" x1="110.77" y1="64.78" x2="113.88" y2="65.28"/><line class="cls-6" x1="116.99" y1="65.79" x2="120.1" y2="66.29"/><line class="cls-6" x1="123.21" y1="66.79" x2="126.32" y2="67.29"/><line class="cls-6" x1="92.62" y1="58.65" x2="95.72" y2="59.16"/><line class="cls-6" x1="98.83" y1="59.66" x2="101.94" y2="60.16"/><line class="cls-6" x1="105.05" y1="60.66" x2="108.16" y2="61.17"/><line class="cls-6" x1="111.27" y1="61.67" x2="114.38" y2="62.17"/><line class="cls-6" x1="117.49" y1="62.68" x2="120.6" y2="63.18"/><line class="cls-6" x1="123.71" y1="63.68" x2="126.82" y2="64.18"/><path class="cls-8" d="M103.8,71.43h6.3A1.57,1.57,0,0,1,111.68,73V84a1.58,1.58,0,0,1-1.58,1.58h-6.3A1.57,1.57,0,0,1,102.23,84V73a1.57,1.57,0,0,1,1.57-1.57Z" transform="translate(12.37 171.57) rotate(-80.82)"/><path class="cls-2" d="M153.89,87.57A7.17,7.17,0,0,0,145,92.5l-2.46,8.61a7.17,7.17,0,0,0,13.78,3.94l2.46-8.62A7.17,7.17,0,0,0,153.89,87.57Z"/><path class="cls-9" d="M152.84,86.12a6.3,6.3,0,0,0-7.79,4.33L142.89,98A6.3,6.3,0,1,0,155,101.48l2.16-7.58A6.3,6.3,0,0,0,152.84,86.12Z"/><path class="cls-10" d="M152.84,86.12a6.3,6.3,0,0,0-7.79,4.33L144,94.23a6.3,6.3,0,0,1,12.12,3.46l1.08-3.79A6.3,6.3,0,0,0,152.84,86.12Z"/><path class="cls-11" d="M151.32,90.84l.16,0a.61.61,0,0,1,.35.28.59.59,0,0,1,0,.43.58.58,0,0,1-.55.42l-.16,0a.59.59,0,0,1-.35-.27.61.61,0,0,1,0-.44.58.58,0,0,1,.55-.42m0-1a1.58,1.58,0,0,0-.43,3.09,1.67,1.67,0,0,0,.44.06,1.58,1.58,0,0,0,.43-3.09,1.67,1.67,0,0,0-.44-.06Z"/><path class="cls-6" d="M152.84,86.12a6.3,6.3,0,0,0-7.79,4.33L142.89,98A6.3,6.3,0,1,0,155,101.48l2.16-7.58A6.3,6.3,0,0,0,152.84,86.12Z"/><path class="cls-2" d="M142.1,120.25a1.58,1.58,0,0,0-1.74-1.39l-1.56.18-1.4-12.52a1.57,1.57,0,0,0-1.74-1.39l-54.79,6.12A1.59,1.59,0,0,0,79.48,113l-1.56.18a1.57,1.57,0,0,0-1.39,1.74l1.22,11a1.59,1.59,0,0,0,1.74,1.39l1.57-.18,2.1,18.78a1.57,1.57,0,0,0,1.74,1.39l24.23-2.71-6.9,8.07a1.57,1.57,0,0,0,.17,2.22l1.8,1.54a1.58,1.58,0,0,0,2.22-.17l10.73-12.55,22.53-2.52a1.57,1.57,0,0,0,1.39-1.74l-.7-6.26,1.57-.18a1.59,1.59,0,0,0,1.39-1.74Z"/><path class="cls-12" d="M83.66,109h23.63a1.57,1.57,0,0,1,1.57,1.57v31.5a1.57,1.57,0,0,1-1.57,1.57H83.66a1.57,1.57,0,0,1-1.57-1.57v-31.5A1.58,1.58,0,0,1,83.66,109Z" transform="translate(-14.24 12.15) rotate(-6.78)"/><path class="cls-12" d="M113.37,105.44H137a1.57,1.57,0,0,1,1.57,1.57v31.5a1.57,1.57,0,0,1-1.57,1.57H113.37a1.58,1.58,0,0,1-1.58-1.58V107a1.57,1.57,0,0,1,1.57-1.57Z" transform="translate(-13.62 15.63) rotate(-6.78)"/><line class="cls-6" x1="105.71" y1="112.39" x2="111.97" y2="111.65"/><line class="cls-6" x1="106.27" y1="117.09" x2="112.53" y2="116.34"/><line class="cls-6" x1="106.83" y1="121.78" x2="113.08" y2="121.04"/><line class="cls-6" x1="107.38" y1="126.47" x2="113.64" y2="125.73"/><line class="cls-6" x1="107.94" y1="131.16" x2="114.2" y2="130.42"/><line class="cls-6" x1="108.5" y1="135.85" x2="114.76" y2="135.11"/><path class="cls-13" d="M77.93,118.87l3.13-.37-.74-6.26-1.57.19a1.58,1.58,0,0,0-1.38,1.75Z"/><path class="cls-14" d="M78.49,123.56a1.58,1.58,0,0,0,1.75,1.38l1.56-.19-.74-6.25-3.13.37Z"/><path class="cls-15" d="M138.85,124.32l3.13-.38-.56-4.69a1.58,1.58,0,0,0-.59-1,1.56,1.56,0,0,0-1.16-.32l-1.56.18Z"/><path class="cls-16" d="M139.59,130.57l1.57-.18a1.58,1.58,0,0,0,1.38-1.75l-.56-4.7-3.13.38Z"/><path class="cls-6" d="M85.44,112.67h9.45a1.57,1.57,0,0,1,1.57,1.57v1.58a1.57,1.57,0,0,1-1.57,1.57H85.44a1.57,1.57,0,0,1-1.57-1.57v-1.58a1.58,1.58,0,0,1,1.58-1.58Z" transform="translate(-12.95 11.45) rotate(-6.78)"/><line class="cls-6" x1="87.69" y1="120.88" x2="103.33" y2="119.02"/><line class="cls-6" x1="84.93" y1="124.38" x2="103.7" y2="122.15"/><line class="cls-6" x1="85.3" y1="127.51" x2="104.07" y2="125.28"/><path class="cls-6" d="M88.24,136.32h6.3a1.58,1.58,0,0,1,1.58,1.58v1.57A1.57,1.57,0,0,1,94.54,141h-6.3a1.57,1.57,0,0,1-1.57-1.57v-1.57a1.58,1.58,0,0,1,1.58-1.58Z" transform="matrix(0.99, -0.12, 0.12, 0.99, -15.73, 11.76)"/><path class="cls-6" d="M100.39,128.74h3.15a1.57,1.57,0,0,1,1.57,1.57v7.88a1.58,1.58,0,0,1-1.58,1.58h-3.15a1.57,1.57,0,0,1-1.57-1.57v-7.88a1.57,1.57,0,0,1,1.57-1.57Z" transform="translate(-15.13 12.98) rotate(-6.78)"/><line class="cls-6" x1="85.67" y1="130.64" x2="95.06" y2="129.52"/><line class="cls-6" x1="86.05" y1="133.77" x2="95.43" y2="132.65"/><path class="cls-6" d="M115.28,112.84a3.15,3.15,0,1,0,2.76-3.5A3.16,3.16,0,0,0,115.28,112.84Z"/><path class="cls-6" d="M117.88,134.74a3.15,3.15,0,1,0,2.76-3.5A3.16,3.16,0,0,0,117.88,134.74Z"/><path class="cls-6" d="M118,120.18h4.73a1.57,1.57,0,0,1,1.57,1.57v1.57a1.57,1.57,0,0,1-1.57,1.57H118a1.58,1.58,0,0,1-1.58-1.58v-1.57a1.57,1.57,0,0,1,1.57-1.57Z" transform="translate(-13.63 15.07) rotate(-6.78)"/><line class="cls-6" x1="118.78" y1="115.6" x2="119.34" y2="120.29"/><line class="cls-6" x1="119.9" y1="124.98" x2="120.64" y2="131.24"/><polyline class="cls-6" points="121.54 112.1 130.92 110.98 131.66 117.24"/><path class="cls-6" d="M135.16,120a3.15,3.15,0,1,1-3.5-2.76A3.15,3.15,0,0,1,135.16,120Z"/><path class="cls-17" d="M137.66,127.63a1.58,1.58,0,0,1-1.38,1.75l-6.26.74a1.57,1.57,0,0,1-1.75-1.37h0a1.58,1.58,0,0,1,1.38-1.75l6.26-.75a1.58,1.58,0,0,1,1.75,1.38Z"/><line class="cls-6" x1="129.84" y1="128.56" x2="136.09" y2="127.82"/><line class="cls-6" x1="127.08" y1="132.06" x2="136.47" y2="130.94"/><line class="cls-6" x1="130.58" y1="134.82" x2="136.84" y2="134.07"/><path class="cls-2" d="M74,77.17a1.57,1.57,0,0,0-1.42-1.72L55.36,73.83l-2-6a1.59,1.59,0,0,0-2-1L20,77.24a1.58,1.58,0,0,0-1,2l14.34,43.36a1.57,1.57,0,0,0,2,1l6.14-2L68,124.06a1.56,1.56,0,0,0,1.71-1.42Z"/><path class="cls-2" d="M27.34,69.15H60.42A1.57,1.57,0,0,1,62,70.73V116.4A1.58,1.58,0,0,1,60.42,118H27.34a1.57,1.57,0,0,1-1.57-1.57V70.73A1.57,1.57,0,0,1,27.34,69.15Z" transform="translate(-1.04 0.49) rotate(-0.64)"/><rect class="cls-12" x="28.84" y="78.76" width="47.25" height="34.65" rx="1.57" ry="1.57" transform="translate(-48.09 139.36) rotate(-84.65)"/><line class="cls-6" x1="41.69" y1="76.09" x2="47.96" y2="76.68"/><line class="cls-6" x1="41.25" y1="80.79" x2="55.36" y2="82.12"/><line class="cls-6" x1="40.81" y1="85.5" x2="50.21" y2="86.38"/><line class="cls-6" x1="40.37" y1="90.2" x2="51.34" y2="91.23"/><line class="cls-6" x1="39.92" y1="94.91" x2="44.63" y2="95.35"/><line class="cls-6" x1="39.48" y1="99.61" x2="56.73" y2="101.23"/><line class="cls-6" x1="39.04" y1="104.32" x2="50.02" y2="105.35"/><line class="cls-6" x1="38.6" y1="109.02" x2="58.99" y2="110.93"/><line class="cls-6" x1="38.16" y1="113.73" x2="47.57" y2="114.61"/><line class="cls-6" x1="51.1" y1="76.97" x2="58.94" y2="77.71"/><line class="cls-6" x1="47.77" y1="95.64" x2="55.61" y2="96.38"/><line class="cls-6" x1="50.71" y1="114.9" x2="58.55" y2="115.64"/><rect class="cls-18" x="26" y="69.51" width="34.65" height="47.25" rx="1.58" ry="1.58" transform="translate(-25.99 17.33) rotate(-17.49)"/><line class="cls-6" x1="25.63" y1="78.9" x2="31.64" y2="77.01"/><line class="cls-6" x1="27.05" y1="83.41" x2="40.57" y2="79.14"/><line class="cls-6" x1="28.47" y1="87.91" x2="37.48" y2="85.07"/><line class="cls-6" x1="29.89" y1="92.42" x2="40.4" y2="89.1"/><line class="cls-6" x1="31.31" y1="96.92" x2="35.81" y2="95.5"/><line class="cls-6" x1="32.73" y1="101.43" x2="49.25" y2="96.22"/><line class="cls-6" x1="34.15" y1="105.94" x2="44.66" y2="102.62"/><line class="cls-6" x1="35.57" y1="110.44" x2="55.1" y2="104.29"/><line class="cls-6" x1="36.99" y1="114.95" x2="46" y2="112.11"/><line class="cls-6" x1="34.64" y1="76.06" x2="42.15" y2="73.69"/><line class="cls-6" x1="38.82" y1="94.56" x2="46.33" y2="92.19"/><line class="cls-6" x1="49.01" y1="111.16" x2="56.52" y2="108.8"/><path class="cls-12" d="M29.15,68.55h31.5a1.57,1.57,0,0,1,1.57,1.57v44.1a1.58,1.58,0,0,1-1.58,1.58H29.15a1.57,1.57,0,0,1-1.57-1.57V70.12A1.57,1.57,0,0,1,29.15,68.55Z"/><path class="cls-6" d="M33.88,73.27H51.2a1.58,1.58,0,0,1,1.58,1.58v1.57A1.57,1.57,0,0,1,51.2,78H33.88a1.57,1.57,0,0,1-1.57-1.57V74.85A1.58,1.58,0,0,1,33.88,73.27Z"/><line class="cls-6" x1="35.45" y1="82.72" x2="57.5" y2="82.72"/><line class="cls-6" x1="32.3" y1="87.45" x2="51.2" y2="87.45"/><path class="cls-17" d="M43.33,93.75H33.88a1.58,1.58,0,0,1-1.58-1.58h0a1.57,1.57,0,0,1,1.58-1.57h9.45a1.57,1.57,0,0,1,1.57,1.57h0A1.58,1.58,0,0,1,43.33,93.75Z"/><path class="cls-17" d="M43.33,103.2H33.88a1.58,1.58,0,0,1-1.58-1.58h0a1.57,1.57,0,0,1,1.58-1.57h9.45a1.57,1.57,0,0,1,1.57,1.57h0A1.58,1.58,0,0,1,43.33,103.2Z"/><line class="cls-6" x1="33.88" y1="92.17" x2="43.33" y2="92.17"/><line class="cls-6" x1="33.88" y1="96.9" x2="43.33" y2="96.9"/><line class="cls-6" x1="33.88" y1="101.62" x2="43.33" y2="101.62"/><circle class="cls-6" cx="51.99" cy="96.11" r="5.51"/><circle class="cls-6" cx="51.99" cy="102.41" r="5.51"/><path class="cls-17" d="M61.22,136.87l-6.17-7-13.78,13a1.58,1.58,0,0,0-.1,2.18l3.14,3.58a1.57,1.57,0,0,0,2.18.18Z"/><path class="cls-19" d="M66.41,128.45l-2.34-2.67a1.58,1.58,0,0,0-2-.3l-7,4.35,6.17,7,5.22-6.38A1.57,1.57,0,0,0,66.41,128.45Z"/><path class="cls-20" d="M65.27,127.15l-1.2-1.37a1.59,1.59,0,0,0-2-.3l-7,4.35,3.11,3.55Z"/><path class="cls-6" d="M61.22,136.87l-6.17-7-13.78,13a1.58,1.58,0,0,0-.1,2.18l3.14,3.58a1.57,1.57,0,0,0,2.18.18Z"/><path class="cls-6" d="M66.41,128.45l-2.34-2.67a1.58,1.58,0,0,0-2-.3l-7,4.35,6.17,7,5.22-6.38A1.57,1.57,0,0,0,66.41,128.45Z"/><line class="cls-6" x1="45.14" y1="144.81" x2="49.88" y2="140.65"/><path class="cls-2" d="M66.59,131.09l-2.34-2.67a1.58,1.58,0,0,0-2-.3l-7,4.34L41.45,145.52a1.58,1.58,0,0,0-.1,2.18l3.14,3.58a1.59,1.59,0,0,0,2.18.18l14.73-12,5.22-6.38A1.57,1.57,0,0,0,66.59,131.09Z"/><path class="cls-17" d="M61.22,136.87l-6.17-7-13.78,13a1.58,1.58,0,0,0-.1,2.18l3.14,3.58a1.57,1.57,0,0,0,2.18.18Z"/><path class="cls-21" d="M42.41,146.47,58,133.24l-3-3.41-13.78,13a1.58,1.58,0,0,0-.1,2.18Z"/><path class="cls-19" d="M66.41,128.45l-2.34-2.67a1.58,1.58,0,0,0-2-.3l-7,4.35,6.17,7,5.22-6.38A1.57,1.57,0,0,0,66.41,128.45Z"/><path class="cls-20" d="M65.27,127.15l-1.2-1.37a1.59,1.59,0,0,0-2-.3l-7,4.35,3.11,3.55Z"/><path class="cls-6" d="M61.22,136.87l-6.17-7-13.78,13a1.58,1.58,0,0,0-.1,2.18l3.14,3.58a1.57,1.57,0,0,0,2.18.18Z"/><path class="cls-6" d="M66.41,128.45l-2.34-2.67a1.58,1.58,0,0,0-2-.3l-7,4.35,6.17,7,5.22-6.38A1.57,1.57,0,0,0,66.41,128.45Z"/><line class="cls-6" x1="45.14" y1="144.81" x2="49.88" y2="140.65"/><path class="cls-22" d="M106.2,153.06a1.58,1.58,0,0,1-2.23.15l-1.18-1a1.58,1.58,0,0,1-.14-2.23L119.29,131a1.57,1.57,0,0,1,2.22-.14l1.18,1a1.57,1.57,0,0,1,.15,2.22Z"/><path class="cls-23" d="M122.1,131.4l-18.72,21.29-.59-.52a1.58,1.58,0,0,1-.14-2.23L119.29,131a1.57,1.57,0,0,1,2.22-.14Z"/><line class="cls-6" x1="107.85" y1="144.03" x2="111.4" y2="147.15"/><path class="cls-6" d="M102.65,149.94a3.14,3.14,0,0,1-.29-4.44l6.24-7.1"/><path class="cls-19" d="M125.44,131.18a2.36,2.36,0,1,1-3.55-3.12c.86-1,4.37-1.4,4.37-1.4S126.3,130.2,125.44,131.18Z"/><path class="cls-20" d="M126.26,126.66s-3.51.42-4.37,1.4a2.37,2.37,0,0,0,.21,3.34Z"/><path class="cls-6" d="M125.44,131.18a2.36,2.36,0,1,1-3.55-3.12c.86-1,4.37-1.4,4.37-1.4S126.3,130.2,125.44,131.18Z"/><path class="cls-6" d="M106.2,153.06a1.58,1.58,0,0,1-2.23.15l-1.18-1a1.58,1.58,0,0,1-.14-2.23L119.29,131a1.57,1.57,0,0,1,2.22-.14l1.18,1a1.57,1.57,0,0,1,.15,2.22Z"/></g></svg>