<svg version="1.1" viewBox="0 0 80 83.997" xmlns="http://www.w3.org/2000/svg"><defs><style>.cls-1,.cls-11,.cls-23,.cls-31{fill:none;}.cls-2,.cls-20,.cls-4{fill:#e8f4fa;}.cls-3,.cls-6{fill:#191816;}.cls-3,.cls-5{opacity:0.15;}.cls-11,.cls-12,.cls-13,.cls-14,.cls-15,.cls-16,.cls-17,.cls-18,.cls-19,.cls-20,.cls-23,.cls-24,.cls-25,.cls-27,.cls-29,.cls-31,.cls-4,.cls-7,.cls-8{stroke:#191816;}.cls-11,.cls-12,.cls-13,.cls-25,.cls-4,.cls-8{stroke-miterlimit:10;}.cls-7,.cls-8{fill:#daedf7;}.cls-15,.cls-16,.cls-17,.cls-18,.cls-19,.cls-20,.cls-23,.cls-24,.cls-27,.cls-7{stroke-linecap:round;}.cls-14,.cls-15,.cls-16,.cls-17,.cls-18,.cls-19,.cls-20,.cls-23,.cls-24,.cls-27,.cls-29,.cls-31,.cls-7{stroke-linejoin:round;}.cls-9{fill:#bf8256;}.cls-10{fill:#915e3a;}.cls-12,.cls-24{fill:#fff;}.cls-13,.cls-16{fill:#ff6242;}.cls-14{fill:#ff8a14;}.cls-15{fill:#ffe500;}.cls-17,.cls-25{fill:#6dd627;}.cls-18,.cls-30{fill:#00b8f0;}.cls-19{fill:#fff48c;}.cls-21{fill:#656769;}.cls-22{fill:#87898c;}.cls-26{clip-path:url(#clip-path);}.cls-27{fill:#ffcebf;}.cls-28{fill:#ffb59e;}.cls-29{fill:#009fd9;}</style><clipPath id="clip-path"><circle class="cls-1" cx="50.13" cy="56" r="40" style="fill:none"/></clipPath></defs><title>55- working-statistic-graph-document</title><g transform="translate(-10.13 -12.003)" data-name="New Symbol 54"><circle class="cls-2" cx="50.13" cy="56" r="40" style="fill:#e8f4fa"/></g><circle class="cls-3" cx="67" cy="45.227" r="9" style="fill:#191816;opacity:.15"/><path class="cls-3" d="m54.75 66.097a1.07 1.07 0 01-1 1.13l-37.55 2a1.08 1.08 0 01-1.12-1l-.12-2.27a1.08 1.08 0 00-1.08-1h-1.81a1.08 1.08 0 01-1.08-1.07v-26.89a1.08 1.08 0 011.08-1.08h37.59a1.07 1.07 0 011.07 1.08v1.4l1.51-.07a1.06 1.06 0 011.12 1z" style="fill:#191816;opacity:.15"/><rect class="cls-4" transform="rotate(-2.96)" x="11.735" y="37.065" width="39.74" height="29" rx="1.07" ry="1.07" style="fill:#e8f4fa;stroke-miterlimit:10;stroke:#191816"/><g class="cls-5" transform="translate(-10.13 -12.003)" style="opacity:.15"><path class="cls-6" d="m42.65 38.26-8.6 1.81a.87.87 0 01-1-.67.86.86 0 00-1.21-.6 1 1 0 01-1.28-.46l-2.78-5.89a1.05 1.05 0 01.49-1.45l8.22-3.89 1.58 3.37 3.34-.69 1.73 5.65.18 1.87a.85.85 0 01-.67.95z" style="fill:#191816"/></g><path class="cls-7" d="m76.95 51.817v0a2.06 2.06 0 01-2.91 0l-4.17-4.2 2.91-2.91 4.2 4.2a2 2 0 01-.03 2.91z" style="fill:#daedf7;stroke-linecap:round;stroke-linejoin:round;stroke:#191816"/><circle class="cls-8" cx="67" cy="41.937" r="9" style="fill:#daedf7;stroke-miterlimit:10;stroke:#191816"/><circle class="cls-9" cx="67" cy="41.937" r="7" style="fill:#bf8256"/><path class="cls-10" d="m62.05 38.777a7 7 0 0111.88 4.06 7 7 0 10-13.87 0 7 7 0 011.99-4.06z" style="fill:#915e3a"/><circle class="cls-11" cx="67" cy="41.937" r="7" style="fill:none;stroke-miterlimit:10;stroke:#191816"/><rect class="cls-12" x="11" y="32.017" width="39.74" height="29" rx="1.07" ry="1.07" style="fill:#fff;stroke-miterlimit:10;stroke:#191816"/><path class="cls-13" d="m46.95 45.827v.46a6.83 6.83 0 110-.46z" style="fill:#ff6242;stroke-miterlimit:10;stroke:#191816"/><path class="cls-14" d="m46.95 45.827v.46h-6.89v-7.36a6.9 6.9 0 016.89 6.9z" style="fill:#ff8a14;stroke-linejoin:round;stroke:#191816"/><line class="cls-15" x1="15.29" x2="15.29" y1="35.237" y2="57.797" style="fill:#ffe500;stroke-linecap:round;stroke-linejoin:round;stroke:#191816"/><rect class="cls-16" x="15.29" y="36.417" width="10.2" height="3.22" style="fill:#ff6242;stroke-linecap:round;stroke-linejoin:round;stroke:#191816"/><rect class="cls-17" x="15.29" y="41.787" width="9.13" height="3.22" style="fill:#6dd627;stroke-linecap:round;stroke-linejoin:round;stroke:#191816"/><rect class="cls-15" x="15.29" y="47.587" width="2.15" height="3.22" style="fill:#ffe500;stroke-linecap:round;stroke-linejoin:round;stroke:#191816"/><rect class="cls-18" x="15.29" y="52.957" width="2.15" height="3.22" style="fill:#00b8f0;stroke-linecap:round;stroke-linejoin:round;stroke:#191816"/><line class="cls-17" x1="22.27" x2="27.64" y1="49.197" y2="49.197" style="fill:#6dd627;stroke-linecap:round;stroke-linejoin:round;stroke:#191816"/><line class="cls-17" x1="22.27" x2="27.64" y1="52.427" y2="52.427" style="fill:#6dd627;stroke-linecap:round;stroke-linejoin:round;stroke:#191816"/><line class="cls-17" x1="22.27" x2="24.42" y1="55.647" y2="55.647" style="fill:#6dd627;stroke-linecap:round;stroke-linejoin:round;stroke:#191816"/><rect class="cls-17" transform="rotate(-11.71)" x="17.415" y="21.136" width="10.15" height="8.55" rx="1.07" ry="1.07" style="fill:#6dd627;stroke-linecap:round;stroke-linejoin:round;stroke:#191816"/><rect class="cls-15" transform="rotate(-25.24)" x="8.3854" y="22.497" width="10.15" height="8.55" rx="1.07" ry="1.07" style="fill:#ffe500;stroke-linecap:round;stroke-linejoin:round;stroke:#191816"/><line class="cls-19" x1="20.25" x2="25.56" y1="18.267" y2="15.767" style="fill:#fff48c;stroke-linecap:round;stroke-linejoin:round;stroke:#191816"/><line class="cls-19" x1="21.38" x2="24.77" y1="20.687" y2="19.087" style="fill:#fff48c;stroke-linecap:round;stroke-linejoin:round;stroke:#191816"/><rect class="cls-3" transform="rotate(7.56)" x="43.886" y="-2.8571" width="19.84" height="24.18" rx="2.48" ry="2.48" style="fill:#191816;opacity:.15"/><rect class="cls-20" transform="rotate(7.56)" x="43.526" y="-5.5796" width="19.84" height="24.18" rx="2.48" ry="2.48" style="fill:#e8f4fa;stroke-linecap:round;stroke-linejoin:round;stroke:#191816"/><path class="cls-21" d="m46.342.5219 14.741 1.9564a2.48 2.48 0 012.1322 2.7847l-.73413 5.5315-19.658-2.6089.73413-5.5315a2.48 2.48 0 012.7847-2.1322z" style="fill:#656769"/><path class="cls-22" d="m61.09 2.4772-14.75-2a2.48 2.48 0 00-2.78 2.13l-.25 1.85a2.48 2.48 0 012.79-2.13l14.74 2a2.49 2.49 0 012.14 2.79l.24-1.85a2.48 2.48 0 00-2.13-2.79z" style="fill:#87898c"/><path class="cls-23" d="m46.342.5219 14.741 1.9564a2.48 2.48 0 012.1322 2.7847l-.73413 5.5315-19.658-2.6089.73413-5.5315a2.48 2.48 0 012.7847-2.1322z" style="fill:none;stroke-linecap:round;stroke-linejoin:round;stroke:#191816"/><rect class="cls-24" transform="rotate(-82.44)" x="-7.4337" y="45.996" width="2.48" height="3.72" rx="1.24" ry="1.24" style="fill:#fff;stroke-linecap:round;stroke-linejoin:round;stroke:#191816"/><rect class="cls-24" transform="rotate(-82.44)" x="-7.4436" y="51.587" width="2.48" height="3.72" rx="1.24" ry="1.24" style="fill:#fff;stroke-linecap:round;stroke-linejoin:round;stroke:#191816"/><rect class="cls-16" transform="rotate(-82.44)" x="-7.4449" y="57.157" width="2.48" height="3.72" rx="1.24" ry="1.24" style="fill:#ff6242;stroke-linecap:round;stroke-linejoin:round;stroke:#191816"/><rect class="cls-24" transform="rotate(-82.44)" x="-11.772" y="45.994" width="2.48" height="3.72" rx="1.24" ry="1.24" style="fill:#fff;stroke-linecap:round;stroke-linejoin:round;stroke:#191816"/><rect class="cls-24" transform="rotate(-82.44)" x="-11.772" y="51.584" width="2.48" height="3.72" rx="1.24" ry="1.24" style="fill:#fff;stroke-linecap:round;stroke-linejoin:round;stroke:#191816"/><rect class="cls-15" transform="rotate(-82.44)" x="-11.774" y="57.154" width="2.48" height="3.72" rx="1.24" ry="1.24" style="fill:#ffe500;stroke-linecap:round;stroke-linejoin:round;stroke:#191816"/><rect class="cls-24" transform="rotate(-82.44)" x="-16.111" y="46.003" width="2.48" height="3.72" rx="1.24" ry="1.24" style="fill:#fff;stroke-linecap:round;stroke-linejoin:round;stroke:#191816"/><rect class="cls-24" transform="rotate(-82.44)" x="-16.111" y="51.583" width="2.48" height="3.72" rx="1.24" ry="1.24" style="fill:#fff;stroke-linecap:round;stroke-linejoin:round;stroke:#191816"/><rect class="cls-25" transform="rotate(-82.44)" x="-16.112" y="57.152" width="2.48" height="3.72" rx="1.24" ry="1.24" style="fill:#6dd627;stroke-miterlimit:10;stroke:#191816"/><rect class="cls-18" transform="rotate(7.4809)" x="46.569" y="-3.1372" width="13.62" height="3.0953" style="fill:#00b8f0;stroke-linecap:round;stroke-linejoin:round;stroke-width:.9985;stroke:#191816"/><g class="cls-26" transform="translate(-10.13 -12.003)" clip-path="url(#clip-path)"><path class="cls-27" d="m42.8 78.78-7.08-15.87a2.0033 2.0033 0 013.66-1.63l4 9a2 2 0 113.65-1.63l.41.91a2 2 0 113.67-1.56l.41.92a2 2 0 013.65-1.63l3 6.62c2.1 4.7.64 6.34 1.84 9l1.12 2.51-10.55 4.67c-2.34-5.26-7.24-1.26-10.95-9.58-1.4-3.14-.92-4.83 1.34-5.84" style="fill:#ffcebf;stroke-linecap:round;stroke-linejoin:round;stroke:#191816"/><line class="cls-27" x1="48.34" x2="47.46" y1="71.56" y2="69.58" style="fill:#ffcebf;stroke-linecap:round;stroke-linejoin:round;stroke:#191816"/><line class="cls-27" x1="44.62" x2="43.2" y1="73.04" y2="69.84" style="fill:#ffcebf;stroke-linecap:round;stroke-linejoin:round;stroke:#191816"/><line class="cls-27" x1="51.99" x2="51.11" y1="69.93" y2="67.95" style="fill:#ffcebf;stroke-linecap:round;stroke-linejoin:round;stroke:#191816"/><path class="cls-28" d="m53.38 83.47a21.42 21.42 0 01-10.14 1.82c2.84 2 5.71 1.14 7.34 4.8l10.51-4.69-1.09-2.51a8 8 0 01-.58-3.45 21.33 21.33 0 01-6.04 4.03z" style="fill:#ffb59e"/><path class="cls-23" d="m42.8 78.78-7.08-15.87a2.0033 2.0033 0 013.66-1.63l4 9a2 2 0 113.65-1.63l.41.91a2 2 0 113.67-1.56l.41.92a2 2 0 013.65-1.63l3 6.62c2.1 4.7.64 6.34 1.84 9l1.12 2.51-10.55 4.67c-2.34-5.26-7.24-1.26-10.95-9.58-1.4-3.14-.92-4.83 1.34-5.84" style="fill:none;stroke-linecap:round;stroke-linejoin:round;stroke:#191816"/><rect class="cls-29" transform="rotate(245.96 58.487 93.689)" x="54.98" y="85.94" width="7" height="15.5" rx="1" ry="1" style="fill:#009fd9;stroke-linejoin:round;stroke:#191816"/><path class="cls-30" d="m50.89 93.24a1 1 0 00-.51 1.32l2 4.57a1 1 0 001.32.51l1.41-.64-2.85-6.39z" style="fill:#00b8f0"/><rect class="cls-31" transform="rotate(245.96 58.487 93.689)" x="54.98" y="85.94" width="7" height="15.5" rx="1" ry="1" style="fill:none;stroke-linejoin:round;stroke:#191816"/><path class="cls-24" transform="rotate(65.96 56.441 89.122)" d="m55.94 82.37h2v13.5h-2a1 1 0 01-1-1v-11.5a1 1 0 011-1z" style="fill:#fff;stroke-linecap:round;stroke-linejoin:round;stroke:#191816"/></g></svg>
