<svg version="1.1" viewBox="0 0 88.014 79.996" xmlns="http://www.w3.org/2000/svg"><defs><style>.cls-1{fill:#fff;}.cls-2{fill:#e8f4fa;}.cls-16,.cls-3{fill:none;}.cls-11,.cls-14,.cls-15,.cls-16,.cls-3,.cls-8{stroke:#191816;}.cls-11,.cls-14,.cls-15,.cls-3,.cls-8{stroke-linecap:round;stroke-linejoin:round;}.cls-4{fill:#bf8256;}.cls-5{fill:#dea47a;}.cls-6{fill:#debb7e;}.cls-7{fill:#b89558;}.cls-12,.cls-8{fill:#6dd627;}.cls-9{fill:#00b8f0;}.cls-10{fill:#4acfff;}.cls-11{fill:#a6fbff;}.cls-13{fill:#9ceb60;}.cls-14{fill:#656769;}.cls-15{fill:#ffe3cf;}.cls-16{stroke-miterlimit:10;}</style></defs><title>11- house-1</title><g transform="translate(-5.9929 -16.004)"><g data-name="New Symbol 24"><path class="cls-1" d="m50 96a39.94 39.94 0 0034.61-20h-69.22a39.94 39.94 0 0034.61 20z" style="fill:#fff"/><path class="cls-1" d="m13.56 72.5c.55 1.2 1.17 2.36 1.83 3.5h69.22c.66-1.14 1.28-2.3 1.83-3.5z" style="fill:#fff"/><path class="cls-2" d="m90 56a40 40 0 10-76.44 16.5h72.88a39.85 39.85 0 003.56-16.5z" style="fill:#e8f4fa"/><line class="cls-3" x1="11" x2="89" y1="72.5" y2="72.5" style="fill:none;stroke-linecap:round;stroke-linejoin:round;stroke:#191816"/><line class="cls-3" x1="6.5" x2="9" y1="72.5" y2="72.5" style="fill:none;stroke-linecap:round;stroke-linejoin:round;stroke:#191816"/><line class="cls-3" x1="91" x2="93.5" y1="72.5" y2="72.5" style="fill:none;stroke-linecap:round;stroke-linejoin:round;stroke:#191816"/></g></g><g transform="translate(-5.9929 -16.004)"><path class="cls-4" d="m79.39 50.17-13.58-17.29a1 1 0 00-.81-.38h-26.39l13.29 17.7a.5.5 0 01-.4.8h27.5a.51.51 0 00.39-.83z" style="fill:#bf8256"/><path class="cls-5" d="m72.58 41.5-6.77-8.62a1 1 0 00-.81-.38h-26.39l6.73 9z" style="fill:#dea47a"/><path class="cls-3" d="m79.39 50.17-13.58-17.29a1 1 0 00-.81-.38h-26.39v0l13.29 17.7a.5.5 0 01-.4.8h27.5a.51.51 0 00.39-.83z" style="fill:none;stroke-linecap:round;stroke-linejoin:round;stroke:#191816"/><rect class="cls-6" x="51.5" y="51" width="26.5" height="21.5" style="fill:#debb7e"/><rect class="cls-7" x="51.5" y="51" width="26.5" height="3.03" style="fill:#b89558"/><rect class="cls-3" x="51.5" y="51" width="26.5" height="21.5" style="fill:none;stroke-linecap:round;stroke-linejoin:round;stroke:#191816"/><line class="cls-3" x1="20.5" x2="20.5" y1="69.39" y2="72.5" style="fill:none;stroke-linecap:round;stroke-linejoin:round;stroke:#191816"/><path class="cls-8" d="m22 65.74c0 2-.7 3.65-1.48 3.65s-1.52-1.69-1.52-3.65 1.48-7.09 1.48-7.09 1.52 5.13 1.52 7.09z" style="fill:#6dd627;stroke-linecap:round;stroke-linejoin:round;stroke:#191816"/><path class="cls-4" d="m60.74 57.5h-5.74l-3.5 6.5h13a.5.5 0 00.41-.78l-3.81-5.5a.49.49 0 00-.36-.22z" style="fill:#bf8256"/><path class="cls-5" d="m53.36 60.5h9.72l-1.93-2.78a.49.49 0 00-.41-.22h-5.74z" style="fill:#dea47a"/><path class="cls-3" d="m60.74 57.5h-5.74l-3.5 6.5h13a.5.5 0 00.41-.78l-3.81-5.5a.49.49 0 00-.36-.22z" style="fill:none;stroke-linecap:round;stroke-linejoin:round;stroke:#191816"/><rect class="cls-7" x="54.5" y="64" width="9.03" height="8.5" style="fill:#b89558"/><rect class="cls-6" x="54.5" y="66" width="9" height="6.5" style="fill:#debb7e"/><rect class="cls-3" x="54.5" y="64" width="9" height="8.5" style="fill:none;stroke-linecap:round;stroke-linejoin:round;stroke:#191816"/><line class="cls-3" x1="61.5" x2="61.5" y1="65.9" y2="67.88" style="fill:none;stroke-linecap:round;stroke-linejoin:round;stroke:#191816"/><path class="cls-9" d="m68 56h5v4.5a1 1 0 01-1 1h-3a1 1 0 01-1-1z" style="fill:#00b8f0"/><polygon class="cls-10" points="68 60.51 72.51 56 68 56 68 60.5" style="fill:#4acfff"/><path class="cls-11" d="m72 53.5h-3a1 1 0 00-1 1v1.5h5v-1.5a1 1 0 00-1-1z" style="fill:#a6fbff;stroke-linecap:round;stroke-linejoin:round;stroke:#191816"/><path class="cls-3" d="m68 56h2.5v5.5h-1.5a1 1 0 01-1-1z" style="fill:none;stroke-linecap:round;stroke-linejoin:round;stroke:#191816"/><path class="cls-3" d="m70.5 56h2.5v4.5a1 1 0 01-1 1h-1.5z" style="fill:none;stroke-linecap:round;stroke-linejoin:round;stroke:#191816"/><circle class="cls-12" cx="69.5" cy="69.5" r="3" style="fill:#6dd627"/><path class="cls-13" d="m69.5 68.3a3 3 0 012.86 2.1 3 3 0 10-5.72 0 3 3 0 012.86-2.1z" style="fill:#9ceb60"/><circle class="cls-3" cx="69.5" cy="69.5" r="3" style="fill:none;stroke-linecap:round;stroke-linejoin:round;stroke:#191816"/><line class="cls-3" x1="54.5" x2="56.5" y1="54.5" y2="54.5" style="fill:none;stroke-linecap:round;stroke-linejoin:round;stroke:#191816"/><line class="cls-3" x1="76" x2="78" y1="54.5" y2="54.5" style="fill:none;stroke-linecap:round;stroke-linejoin:round;stroke:#191816"/><line class="cls-3" x1="76" x2="78" y1="59" y2="59" style="fill:none;stroke-linecap:round;stroke-linejoin:round;stroke:#191816"/><line class="cls-3" x1="76" x2="78" y1="63.5" y2="63.5" style="fill:none;stroke-linecap:round;stroke-linejoin:round;stroke:#191816"/><line class="cls-3" x1="76" x2="78" y1="68.5" y2="68.5" style="fill:none;stroke-linecap:round;stroke-linejoin:round;stroke:#191816"/><path class="cls-14" d="m56.25 66.5v0a1.75 1.75 0 00-1.75 1.75v4.25h3.5v-4.25a1.75 1.75 0 00-1.75-1.75z" style="fill:#656769;stroke-linecap:round;stroke-linejoin:round;stroke:#191816"/><rect class="cls-15" x="50.5" y="27.5" width="4" height="45" style="fill:#ffe3cf;stroke-linecap:round;stroke-linejoin:round;stroke:#191816"/><line class="cls-3" x1="49.5" x2="55.5" y1="27.5" y2="27.5" style="fill:none;stroke-linecap:round;stroke-linejoin:round;stroke:#191816"/><path class="cls-15" d="m51.88 25.52h1.24a1 1 0 011 .68l.43 1.3h-4l.43-1.3a1 1 0 01.9-.68z" style="fill:#ffe3cf;stroke-linecap:round;stroke-linejoin:round;stroke:#191816"/><rect class="cls-6" x="25" y="51" width="26.5" height="21.5" style="fill:#debb7e"/><rect class="cls-7" x="25" y="51" width="26.5" height="3.03" style="fill:#b89558"/><rect class="cls-3" x="25" y="51" width="26.5" height="21.5" style="fill:none;stroke-linecap:round;stroke-linejoin:round;stroke:#191816"/><line class="cls-3" x1="25" x2="27" y1="54.5" y2="54.5" style="fill:none;stroke-linecap:round;stroke-linejoin:round;stroke:#191816"/><line class="cls-3" x1="25" x2="27" y1="59" y2="59" style="fill:none;stroke-linecap:round;stroke-linejoin:round;stroke:#191816"/><line class="cls-3" x1="25" x2="27" y1="63.5" y2="63.5" style="fill:none;stroke-linecap:round;stroke-linejoin:round;stroke:#191816"/><line class="cls-3" x1="25" x2="27" y1="68.5" y2="68.5" style="fill:none;stroke-linecap:round;stroke-linejoin:round;stroke:#191816"/><path class="cls-9" d="m41.5 64.5h5v4.5a1 1 0 01-1 1h-3a1 1 0 01-1-1z" style="fill:#00b8f0"/><polygon class="cls-10" points="41.5 69.01 46.01 64.5 41.5 64.5 41.5 69" style="fill:#4acfff"/><path class="cls-11" d="m45.5 62h-3a1 1 0 00-1 1v1.5h5v-1.5a1 1 0 00-1-1z" style="fill:#a6fbff;stroke-linecap:round;stroke-linejoin:round;stroke:#191816"/><path class="cls-3" d="m41.5 64.5h2.5v5.5h-1.5a1 1 0 01-1-1z" style="fill:none;stroke-linecap:round;stroke-linejoin:round;stroke:#191816"/><path class="cls-3" d="m44 64.5h2.5v4.5a1 1 0 01-1 1h-1.5z" style="fill:none;stroke-linecap:round;stroke-linejoin:round;stroke:#191816"/><path class="cls-9" d="m41.5 53.5h5v4.5a1 1 0 01-1 1h-3a1 1 0 01-1-1z" style="fill:#00b8f0"/><polygon class="cls-10" points="41.5 58.01 46.01 53.5 41.5 53.5 41.5 58" style="fill:#4acfff"/><path class="cls-11" d="m45.5 51h-3a1 1 0 00-1 1v1.5h5v-1.5a1 1 0 00-1-1z" style="fill:#a6fbff;stroke-linecap:round;stroke-linejoin:round;stroke:#191816"/><path class="cls-3" d="m41.5 53.5h2.5v5.5h-1.5a1 1 0 01-1-1z" style="fill:none;stroke-linecap:round;stroke-linejoin:round;stroke:#191816"/><path class="cls-3" d="m44 53.5h2.5v4.5a1 1 0 01-1 1h-1.5z" style="fill:none;stroke-linecap:round;stroke-linejoin:round;stroke:#191816"/><path class="cls-9" d="m30.5 64.5h5v4.5a1 1 0 01-1 1h-3a1 1 0 01-1-1z" style="fill:#00b8f0"/><polygon class="cls-10" points="30.5 69.01 35.01 64.5 30.5 64.5 30.5 69" style="fill:#4acfff"/><path class="cls-11" d="m34.5 62h-3a1 1 0 00-1 1v1.5h5v-1.5a1 1 0 00-1-1z" style="fill:#a6fbff;stroke-linecap:round;stroke-linejoin:round;stroke:#191816"/><path class="cls-3" d="m30.5 64.5h2.5v5.5h-1.5a1 1 0 01-1-1z" style="fill:none;stroke-linecap:round;stroke-linejoin:round;stroke:#191816"/><path class="cls-3" d="m33 64.5h2.5v4.5a1 1 0 01-1 1h-1.5z" style="fill:none;stroke-linecap:round;stroke-linejoin:round;stroke:#191816"/><path class="cls-9" d="m30.5 53.5h5v4.5a1 1 0 01-1 1h-3a1 1 0 01-1-1z" style="fill:#00b8f0"/><polygon class="cls-10" points="30.5 58.01 35.01 53.5 30.5 53.5 30.5 58" style="fill:#4acfff"/><path class="cls-11" d="m34.5 51h-3a1 1 0 00-1 1v1.5h5v-1.5a1 1 0 00-1-1z" style="fill:#a6fbff;stroke-linecap:round;stroke-linejoin:round;stroke:#191816"/><path class="cls-3" d="m30.5 53.5h2.5v5.5h-1.5a1 1 0 01-1-1z" style="fill:none;stroke-linecap:round;stroke-linejoin:round;stroke:#191816"/><path class="cls-3" d="m33 53.5h2.5v4.5a1 1 0 01-1 1h-1.5z" style="fill:none;stroke-linecap:round;stroke-linejoin:round;stroke:#191816"/><line class="cls-3" x1="49.5" x2="51.5" y1="54.5" y2="54.5" style="fill:none;stroke-linecap:round;stroke-linejoin:round;stroke:#191816"/><line class="cls-3" x1="49.5" x2="51.5" y1="59" y2="59" style="fill:none;stroke-linecap:round;stroke-linejoin:round;stroke:#191816"/><line class="cls-3" x1="49.5" x2="51.5" y1="63.5" y2="63.5" style="fill:none;stroke-linecap:round;stroke-linejoin:round;stroke:#191816"/><line class="cls-3" x1="49.5" x2="51.5" y1="68.5" y2="68.5" style="fill:none;stroke-linecap:round;stroke-linejoin:round;stroke:#191816"/><path class="cls-4" d="m38.65 32.53 13.25 17.67a.5.5 0 01-.4.8h-26.5a.5.5 0 01-.4-.8l13.25-17.67a.51.51 0 01.8 0z" style="fill:#bf8256"/><path class="cls-5" d="m45.38 41.5-6.73-9a.51.51 0 00-.8 0l-6.73 9z" style="fill:#dea47a"/><path class="cls-16" d="m38.65 32.53 13.25 17.67a.5.5 0 01-.4.8h-26.5a.5.5 0 01-.4-.8l13.25-17.67a.51.51 0 01.8 0z" style="fill:none;stroke-miterlimit:10;stroke:#191816"/></g></svg>
