<svg version="1.1" viewBox="0 0 88.014 66.796" xmlns="http://www.w3.org/2000/svg"><defs><style>.cls-1{fill:#e8f4fa;}.cls-2,.cls-4{fill:#fff;}.cls-3,.cls-7{fill:none;}.cls-3{stroke:#4f4a45;}.cls-10,.cls-16,.cls-17,.cls-18,.cls-19,.cls-3,.cls-4,.cls-7,.cls-8,.cls-9{stroke-linecap:round;}.cls-10,.cls-11,.cls-12,.cls-13,.cls-16,.cls-17,.cls-18,.cls-19,.cls-3,.cls-4,.cls-7,.cls-8,.cls-9{stroke-linejoin:round;}.cls-10,.cls-11,.cls-12,.cls-13,.cls-16,.cls-17,.cls-18,.cls-19,.cls-4,.cls-7,.cls-8,.cls-9{stroke:#191816;}.cls-17,.cls-5{fill:#adc4d9;}.cls-16,.cls-6{fill:#c0dceb;}.cls-12,.cls-8{fill:#ff6242;}.cls-9{fill:#ffe500;}.cls-10{fill:#6dd627;}.cls-11{fill:#daedf7;}.cls-13{fill:#4aeff7;}.cls-14{fill:#00b8f0;}.cls-15{fill:#4acfff;}.cls-18{fill:#e4ecf1;}.cls-19{fill:#e0e0e0;}.cls-20{fill:#191816;opacity:0.15;}</style></defs><title>14- web-programming-design-construction-2</title><path class="cls-1" d="m84.007 39.996a40 40 0 10-76.44 16.5h72.87a39.7 39.7 0 003.57-16.5z" style="fill:#e8f4fa"/><line class="cls-3" x1="5.0071" x2="83.007" y1="56.496" y2="56.496" style="fill:none;stroke-linecap:round;stroke-linejoin:round;stroke:#4f4a45"/><line class="cls-3" x1=".50712" x2="3.0071" y1="56.496" y2="56.496" style="fill:none;stroke-linecap:round;stroke-linejoin:round;stroke:#4f4a45"/><line class="cls-3" x1="85.007" x2="87.507" y1="56.496" y2="56.496" style="fill:none;stroke-linecap:round;stroke-linejoin:round;stroke:#4f4a45"/><g transform="translate(-6.3329 -16.004)"><path class="cls-4" d="m19.2 45.45h46v25.19a1.87 1.87 0 01-1.87 1.87h-42.26a1.87 1.87 0 01-1.87-1.87z" style="fill:#fff;stroke-linecap:round;stroke-linejoin:round;stroke:#191816"/><path class="cls-5" d="m21.29 39h41.83a2.09 2.09 0 012.09 2v4.41h-46v-4.41a2.09 2.09 0 012.08-2z" style="fill:#adc4d9"/><path class="cls-6" d="m62.94 39h-41.48a2.26 2.26 0 00-2.26 2.26v2.7a2.26 2.26 0 012.26-2.26h41.48a2.27 2.27 0 012.27 2.26v-2.7a2.27 2.27 0 00-2.27-2.26z" style="fill:#c0dceb"/><path class="cls-7" d="m21.29 39h41.83a2.09 2.09 0 012.09 2v4.41h-46v-4.41a2.09 2.09 0 012.08-2z" style="fill:none;stroke-linecap:round;stroke-linejoin:round;stroke:#191816"/><circle class="cls-8" cx="22.44" cy="42.2" r="1.08" style="fill:#ff6242;stroke-linecap:round;stroke-linejoin:round;stroke:#191816"/><circle class="cls-9" cx="26.77" cy="42.2" r="1.08" style="fill:#ffe500;stroke-linecap:round;stroke-linejoin:round;stroke:#191816"/><circle class="cls-10" cx="31.1" cy="42.2" r="1.08" style="fill:#6dd627;stroke-linecap:round;stroke-linejoin:round;stroke:#191816"/><rect class="cls-11" transform="rotate(45 28.393 74.181)" x="21.15" y="73.1" width="14.49" height="2.17" rx=".5" ry=".5" style="fill:#daedf7;stroke-linejoin:round;stroke:#191816"/><rect class="cls-11" transform="rotate(45 38.926 74.174)" x="31.69" y="73.1" width="14.49" height="2.17" rx=".5" ry=".5" style="fill:#daedf7;stroke-linejoin:round;stroke:#191816"/><rect class="cls-11" transform="rotate(135 28.398 74.178)" x="21.15" y="73.1" width="14.49" height="2.17" rx=".5" ry=".5" style="fill:#daedf7;stroke-linejoin:round;stroke:#191816"/><rect class="cls-11" x="32.73" y="64.94" width="2.17" height="15.16" rx=".35" ry=".35" style="fill:#daedf7;stroke-linejoin:round;stroke:#191816"/><rect class="cls-11" x="21.9" y="64.94" width="2.17" height="15.16" rx=".35" ry=".35" style="fill:#daedf7;stroke-linejoin:round;stroke:#191816"/><rect class="cls-11" x="24.07" y="66.56" width="8.66" height="2.17" rx=".5" ry=".5" style="fill:#daedf7;stroke-linejoin:round;stroke:#191816"/><rect class="cls-12" x="22.99" y="49.24" width="11.37" height="12.99" rx="1" ry="1" style="fill:#ff6242;stroke-linejoin:round;stroke:#191816"/><path class="cls-13" d="m42.93 65.48h15.86a1 1 0 011 1v6h-17.86v-6a1 1 0 011-1z" style="fill:#4aeff7;stroke-linejoin:round;stroke:#191816"/><rect class="cls-9" x="41.93" y="60.07" width="17.86" height="2.71" style="fill:#ffe500;stroke-linecap:round;stroke-linejoin:round;stroke:#191816"/><polygon class="cls-14" points="68.71 33.46 67.42 37.97 76.44 37.97 76.44 33.46" style="fill:#00b8f0"/><polygon class="cls-15" points="71.12 33.46 76.44 33.46 76.44 37.97 74.4 37.97" style="fill:#4acfff"/><rect class="cls-16" x="44.5" y="30.88" width="42.9" height="2.58" rx="1" ry="1" style="fill:#c0dceb;stroke-linecap:round;stroke-linejoin:round;stroke:#191816"/><rect class="cls-17" x="70" y="40.55" width="5.16" height="39.33" style="fill:#adc4d9;stroke-linecap:round;stroke-linejoin:round;stroke:#191816"/><path class="cls-16" d="m75.15 30.88h-5.15l2.06-6.7a.54.54 0 011 0z" style="fill:#c0dceb;stroke-linecap:round;stroke-linejoin:round;stroke:#191816"/><line class="cls-7" x1="45.58" x2="72.65" y1="30.88" y2="24.12" style="fill:none;stroke-linecap:round;stroke-linejoin:round;stroke:#191816"/><line class="cls-7" x1="84.18" x2="72.65" y1="30.88" y2="24.12" style="fill:none;stroke-linecap:round;stroke-linejoin:round;stroke:#191816"/><path class="cls-18" d="m68 40.55h7.9a.54.54 0 00.54-.54v-2.01h-9v2a.54.54 0 00.56.55z" style="fill:#e4ecf1;stroke-linecap:round;stroke-linejoin:round;stroke:#191816"/><polygon class="cls-7" points="68.71 33.46 67.42 37.97 76.44 37.97 76.44 33.46" style="fill:none;stroke-linecap:round;stroke-linejoin:round;stroke:#191816"/><rect class="cls-18" x="48.37" y="33.46" width="5.16" height="2.58" style="fill:#e4ecf1;stroke-linecap:round;stroke-linejoin:round;stroke:#191816"/><path class="cls-18" d="m52.28 49.45a1.29 1.29 0 11-1.28-1.29 1.29 1.29 0 011.28 1.29z" style="fill:#e4ecf1;stroke-linecap:round;stroke-linejoin:round;stroke:#191816"/><line class="cls-7" x1="70" x2="75.15" y1="52.79" y2="57.95" style="fill:none;stroke-linecap:round;stroke-linejoin:round;stroke:#191816"/><line class="cls-7" x1="75.15" x2="70" y1="52.79" y2="57.95" style="fill:none;stroke-linecap:round;stroke-linejoin:round;stroke:#191816"/><line class="cls-7" x1="70" x2="75.15" y1="58.59" y2="63.75" style="fill:none;stroke-linecap:round;stroke-linejoin:round;stroke:#191816"/><line class="cls-7" x1="75.15" x2="70" y1="58.59" y2="63.75" style="fill:none;stroke-linecap:round;stroke-linejoin:round;stroke:#191816"/><line class="cls-7" x1="70" x2="75.15" y1="63.89" y2="69.05" style="fill:none;stroke-linecap:round;stroke-linejoin:round;stroke:#191816"/><line class="cls-7" x1="75.15" x2="70" y1="63.89" y2="69.05" style="fill:none;stroke-linecap:round;stroke-linejoin:round;stroke:#191816"/><line class="cls-7" x1="70" x2="75.15" y1="69.31" y2="74.46" style="fill:none;stroke-linecap:round;stroke-linejoin:round;stroke:#191816"/><line class="cls-7" x1="75.15" x2="70" y1="69.31" y2="74.46" style="fill:none;stroke-linecap:round;stroke-linejoin:round;stroke:#191816"/><line class="cls-7" x1="70" x2="75.15" y1="46.99" y2="52.15" style="fill:none;stroke-linecap:round;stroke-linejoin:round;stroke:#191816"/><line class="cls-7" x1="75.15" x2="70" y1="46.99" y2="52.15" style="fill:none;stroke-linecap:round;stroke-linejoin:round;stroke:#191816"/><line class="cls-7" x1="70" x2="75.15" y1="41.19" y2="46.35" style="fill:none;stroke-linecap:round;stroke-linejoin:round;stroke:#191816"/><line class="cls-7" x1="75.15" x2="70" y1="41.19" y2="46.35" style="fill:none;stroke-linecap:round;stroke-linejoin:round;stroke:#191816"/><path class="cls-17" transform="rotate(180,75.625,78.795)" d="m66.15 77.71h18.95v1.67a.5.5 0 01-.5.5h-17.95a.5.5 0 01-.5-.5z" style="fill:#adc4d9;stroke-linecap:round;stroke-linejoin:round;stroke:#191816"/><path class="cls-17" transform="rotate(180,72.375,76.63)" d="m68.86 75.55h7v1.67a.5.5 0 01-.5.5h-6a.5.5 0 01-.5-.5z" style="fill:#adc4d9;stroke-linecap:round;stroke-linejoin:round;stroke:#191816"/><rect class="cls-19" transform="rotate(180,81.305,76.63)" x="78.6" y="75.55" width="5.41" height="2.17" style="fill:#e0e0e0;stroke-linecap:round;stroke-linejoin:round;stroke:#191816"/><rect class="cls-19" transform="rotate(180,81.305,74.465)" x="78.6" y="73.38" width="5.41" height="2.17" style="fill:#e0e0e0;stroke-linecap:round;stroke-linejoin:round;stroke:#191816"/><rect class="cls-19" transform="rotate(180,81.305,72.3)" x="78.6" y="71.22" width="5.41" height="2.17" style="fill:#e0e0e0;stroke-linecap:round;stroke-linejoin:round;stroke:#191816"/><polygon class="cls-7" points="54.78 54.11 47.21 54.11 50.99 50.74" style="fill:none;stroke-linecap:round;stroke-linejoin:round;stroke:#191816"/><rect class="cls-9" transform="rotate(180,50.995,55.465)" x="43.82" y="54.11" width="14.35" height="2.71" style="fill:#ffe500;stroke-linecap:round;stroke-linejoin:round;stroke:#191816"/><line class="cls-7" x1="50.99" x2="50.99" y1="48.16" y2="36.04" style="fill:none;stroke-linecap:round;stroke-linejoin:round;stroke:#191816"/><ellipse class="cls-20" cx="75.49" cy="81.18" rx="13.53" ry="1.62" style="fill:#191816;opacity:.15"/><ellipse class="cls-20" cx="32.19" cy="81.18" rx="13.53" ry="1.62" style="fill:#191816;opacity:.15"/></g></svg>
